<svg width="18" height="18" viewBox="0 0 18 18" fill="none" xmlns="http://www.w3.org/2000/svg">
<path fill-rule="evenodd" clip-rule="evenodd" d="M2.67495 9.0002C2.67495 5.50699 5.50675 2.6752 8.99995 2.6752C10.9155 2.6752 12.6323 3.52622 13.793 4.87301H12C11.7238 4.87301 11.5 5.09686 11.5 5.37301C11.5 5.64915 11.7238 5.87301 12 5.87301H14.226C15.0544 5.87301 15.726 5.20143 15.726 4.37301V2.0002C15.726 1.72405 15.5021 1.5002 15.226 1.5002C14.9498 1.5002 14.726 1.72405 14.726 2.0002V3.88953C13.3212 2.31678 11.2764 1.3252 8.99995 1.3252C4.76117 1.3252 1.32495 4.76141 1.32495 9.0002C1.32495 13.239 4.76117 16.6752 8.99995 16.6752C9.3655 16.6752 9.72546 16.6496 10.078 16.6C10.4472 16.5481 10.7044 16.2067 10.6524 15.8375C10.6005 15.4684 10.2591 15.2112 9.88996 15.2632C9.5995 15.304 9.30239 15.3252 8.99995 15.3252C5.50675 15.3252 2.67495 12.4934 2.67495 9.0002ZM15.936 12.2898C16.096 11.9531 15.9527 11.5505 15.616 11.3905C15.2792 11.2305 14.8766 11.3738 14.7166 11.7106C14.5886 11.9801 14.4419 12.2393 14.2784 12.4864C14.0726 12.7973 14.1578 13.2161 14.4687 13.4218C14.7795 13.6276 15.1983 13.5424 15.4041 13.2315C15.6025 12.9318 15.7805 12.6172 15.936 12.2898ZM13.9738 14.8456C14.2576 14.6038 14.2918 14.1778 14.0501 13.894C13.8083 13.6102 13.3823 13.5761 13.0985 13.8178C12.6477 14.2017 12.1426 14.5233 11.5966 14.7695C11.2568 14.9227 11.1055 15.3224 11.2587 15.6623C11.412 16.0021 11.8117 16.1534 12.1515 16.0002C12.8147 15.7012 13.4274 15.3109 13.9738 14.8456ZM7.00007 7.78145C7.00007 8.8432 7.83189 9.71465 8.8782 9.77796C8.89989 9.78039 8.92194 9.78164 8.94429 9.78164C9.37026 9.78164 9.71675 10.1279 9.71675 10.5537C9.71675 10.9799 9.37026 11.3262 8.94429 11.3262C8.51831 11.3262 8.17183 10.9799 8.17183 10.5537C8.17183 10.2303 7.90952 9.96777 7.58589 9.96777C7.26226 9.96777 6.99995 10.2303 6.99995 10.5537C6.99995 11.442 7.599 12.1933 8.41438 12.4246V12.8225C8.41438 13.1459 8.67668 13.4084 9.00032 13.4084C9.32395 13.4084 9.58645 13.1461 9.58645 12.8225V12.3891C10.344 12.1232 10.8886 11.4007 10.8886 10.5537C10.8886 9.52352 10.0827 8.67772 9.06841 8.61349C9.04605 8.6109 9.02332 8.60957 9.00027 8.60957C8.54343 8.60957 8.17195 8.23809 8.17195 7.78145C8.17195 7.32481 8.54343 6.95332 9.00027 6.95332C9.4571 6.95332 9.82859 7.32481 9.82859 7.78145C9.82859 8.10508 10.0911 8.36738 10.4145 8.36738C10.738 8.36738 11.0005 8.10508 11.0005 7.78145C11.0005 6.86208 10.3768 6.08553 9.53022 5.85269V5.58613C9.53022 5.2625 9.26792 5.0002 8.94429 5.0002C8.62066 5.0002 8.35835 5.2625 8.35835 5.58613V5.88707C7.56933 6.15512 7.00007 6.9031 7.00007 7.78145Z" fill="#A1A1AA" style="fill:#A1A1AA;fill:color(display-p3 0.6314 0.6314 0.6667);fill-opacity:1;"/>
</svg>
