<svg width="83" height="70" viewBox="0 0 83 70" fill="none" xmlns="http://www.w3.org/2000/svg">
<rect x="0.4375" y="0.4375" width="69.125" height="69.125" rx="10.0625" stroke="#E2E8F0" style="stroke:#E2E8F0;stroke:color(display-p3 0.8863 0.9098 0.9412);stroke-opacity:1;" stroke-width="0.875"/>
<g clip-path="url(#clip0_3170_4113)">
<path fill-rule="evenodd" clip-rule="evenodd" d="M17.7054 26.6849L34.2913 15.2866L42.0673 18.4143L17.838 35.0654L17.7054 26.6849ZM52.802 42.4223L36.2161 53.8206L28.4401 50.6929L52.6694 34.0418L52.802 42.4223ZM17.8317 42.2517L32.6036 32.4733L40.3124 35.7177L17.8069 50.6153L17.8317 42.2517Z" fill="#3787FF" style="fill:#3787FF;fill:color(display-p3 0.2167 0.5300 1.0000);fill-opacity:1;"/>
<path fill-rule="evenodd" clip-rule="evenodd" d="M17.7054 26.6849L34.2913 15.2866L42.0673 18.4143L17.838 35.0654L17.7054 26.6849ZM52.802 42.4223L36.2161 53.8206L28.4401 50.6929L52.6694 34.0418L52.802 42.4223ZM17.8317 42.2517L32.6036 32.4733L40.3124 35.7177L17.8069 50.6153L17.8317 42.2517Z" fill="url(#paint0_linear_3170_4113)" fill-opacity="0.4" style=""/>
</g>
<g clip-path="url(#clip1_3170_4113)">
<circle cx="70.5" cy="57" r="12" fill="white" style="fill:white;fill:white;fill-opacity:1;"/>
<path d="M70 44C62.85 44 57 49.85 57 57C57 64.15 62.85 70 70 70C77.15 70 83 64.15 83 57C83 49.85 77.15 44 70 44ZM76.5 55.4833L69.1333 62.6333C68.7 63.2833 67.8333 63.2833 67.1833 62.6333L63.5 59.1667C63.0667 58.5167 63.0667 57.8667 63.5 57.2167C64.15 56.7833 64.8 56.7833 65.45 57.2167L68.2667 60.25L74.7667 53.75C75.2 53.3167 76.0667 53.3167 76.5 53.75C76.9333 54.1833 76.9333 55.05 76.5 55.4833Z" fill="#09BB07" style="fill:#09BB07;fill:color(display-p3 0.0353 0.7333 0.0275);fill-opacity:1;"/>
</g>
<defs>
<linearGradient id="paint0_linear_3170_4113" x1="14.6609" y1="45.2412" x2="38.9931" y2="28.8275" gradientUnits="userSpaceOnUse">
<stop stop-color="white" style="stop-color:white;stop-color:white;stop-opacity:1;"/>
<stop offset="1" stop-color="white" stop-opacity="0" style="stop-color:none;stop-color:none;stop-opacity:0;"/>
</linearGradient>
<clipPath id="clip0_3170_4113">
<rect width="42.7633" height="43.2" fill="white" style="fill:white;fill:white;fill-opacity:1;" transform="translate(13.8916 12.8999)"/>
</clipPath>
<clipPath id="clip1_3170_4113">
<rect width="26" height="26" fill="white" style="fill:white;fill:white;fill-opacity:1;" transform="translate(57 44)"/>
</clipPath>
</defs>
</svg>
