<svg width="134" height="146" viewBox="0 0 134 146" fill="none" xmlns="http://www.w3.org/2000/svg">
<g filter="url(#filter0_d_4548_60442)">
<path d="M69.2734 1.03607C68.2543 1.08713 67.2344 1.11508 66.2139 1.11991C61.8709 1.13854 57.5279 1.14027 53.1849 1.12508C52.982 1.12508 52.6974 1.07333 52.4521 1.07644C51.2963 1.09438 50.1409 1.08679 48.9858 1.05367" stroke="#EDEDED" stroke-width="0.207006"/>
<path d="M91.45 1.00708C91.4175 1.03744 91.3961 1.06953 91.3858 1.10334C91.3761 1.13577 91.3878 1.15164 91.421 1.15095C92.2497 1.14474 93.0787 1.13715 93.9082 1.12818C94.1296 1.12611 94.2984 1.23789 94.4143 1.46353C94.5188 1.66536 94.3998 2.12077 94.3998 2.36297C94.3977 8.36616 94.3981 14.369 94.4008 20.3715C94.4008 21.2823 94.4508 21.9544 94.5509 22.3877C95.1719 25.084 97.4966 26.7442 100.221 26.7463C105.854 26.7511 111.488 26.7514 117.122 26.7473C117.804 26.7463 118.675 26.738 119.438 26.7059C119.594 26.6997 119.75 26.7242 119.906 26.7794" stroke="#EDEDED" stroke-width="0.207006"/>
<path d="M120.093 64.7578L120.071 70.6657" stroke="#F3D480" stroke-width="0.207006"/>
<path d="M120.07 70.6657C118.728 71.4924 117.381 72.318 116.032 73.1425C115.426 73.512 114.695 73.8577 114.041 74.2542C114.027 74.2629 114.014 74.2747 114.004 74.2886C113.995 74.3025 113.988 74.3183 113.985 74.3349C113.964 74.4529 113.903 74.4967 113.802 74.4664" stroke="#FFEC99" stroke-width="0.207006"/>
<path d="M113.802 74.4664C113.688 74.4706 113.579 74.542 113.476 74.6807" stroke="#FAE681" stroke-width="0.207006"/>
<path d="M113.476 74.6806L113.254 74.7499C113.222 74.7596 113.206 74.7817 113.206 74.8162L113.212 74.9456C113.213 74.9842 113.194 75.0056 113.156 75.0097C112.896 75.036 112.631 75.1333 112.36 75.3016" stroke="#FFEC99" stroke-width="0.207006"/>
<path d="M112.36 75.3017C112.091 75.172 112.094 74.9156 112.37 74.5326C112.38 74.5187 112.387 74.5028 112.39 74.486C112.393 74.4692 112.393 74.4519 112.389 74.4353C112.32 74.1693 113.073 73.9334 113.36 73.8485C113.388 73.8405 113.417 73.8435 113.443 73.8568C113.612 73.9465 113.791 73.9951 113.981 74.0027C114.04 74.0048 114.049 73.9855 114.006 73.9447C113.502 73.4521 112.873 73.7315 112.288 74.012C112.258 74.0265 112.233 74.02 112.213 73.9924L112.073 73.7998C112.062 73.7852 112.048 73.7736 112.031 73.766C112.015 73.7584 111.996 73.7551 111.978 73.7564C111.656 73.7826 111.337 73.7736 111.022 73.7295C110.728 73.6888 110.513 73.6877 110.379 73.7264C109.92 73.8568 109.764 74.3287 109.275 74.2501C109.269 74.2489 109.262 74.2491 109.256 74.2509C109.249 74.2526 109.243 74.2557 109.238 74.2601C109.233 74.2644 109.229 74.2698 109.226 74.276C109.223 74.2821 109.222 74.2888 109.221 74.2956L109.21 75.4031C109.21 75.4446 109.223 75.4851 109.247 75.519C109.271 75.5528 109.305 75.5782 109.345 75.5915C109.525 75.6529 109.699 75.7474 109.864 75.8751C110.059 76.0241 110.279 76.0748 110.483 76.2249C110.504 76.2402 110.52 76.262 110.528 76.2871C110.535 76.3121 110.535 76.339 110.525 76.3635C110.516 76.3881 110.499 76.4089 110.477 76.4227C110.455 76.4366 110.429 76.4427 110.402 76.4402C110.244 76.4264 110.133 76.4864 110.067 76.6203C110.066 76.6216 110.066 76.6231 110.066 76.6246C110.066 76.6261 110.066 76.6277 110.066 76.6292C110.067 76.6307 110.068 76.632 110.069 76.6332C110.07 76.6343 110.072 76.6352 110.073 76.6358C110.084 76.6393 110.095 76.6427 110.106 76.6462C110.122 76.6517 110.125 76.6614 110.116 76.6752L109.925 76.9329" stroke="#EDEDED" stroke-width="0.207006"/>
<path d="M109.925 76.9329C109.711 77.0391 109.555 77.1219 109.458 77.1813C95.3412 85.8231 81.2303 94.4742 67.1255 103.135" stroke="#FFEC99" stroke-width="0.207006"/>
<path d="M67.1257 103.135C66.7168 103.165 64.6416 101.783 63.4627 101.057C50.9036 93.3278 38.3425 85.6016 25.7792 77.8789C24.1832 76.8987 22.5282 75.9775 20.9829 74.9208" stroke="#FAE681" stroke-width="0.207006"/>
<path d="M20.9829 74.9208C20.9733 74.791 20.9053 74.7455 20.779 74.7841C20.7537 74.792 20.7267 74.7921 20.7013 74.7846C20.6759 74.777 20.6534 74.7621 20.6365 74.7416C20.6197 74.7212 20.6092 74.6963 20.6066 74.6699C20.604 74.6436 20.6092 74.617 20.6217 74.5937C20.7217 74.4032 20.681 74.2518 20.4996 74.1393C20.4872 74.1316 20.4773 74.1205 20.4711 74.1073C20.4649 74.0941 20.4627 74.0794 20.4646 74.065C20.4666 74.0505 20.4727 74.037 20.4822 74.0259C20.4917 74.0149 20.5042 74.0068 20.5182 74.0027C20.8115 73.9185 21.1023 73.9333 21.3907 74.0472C21.4397 74.0665 21.4552 74.0517 21.4373 74.0027C21.3266 73.6932 20.5441 73.7481 20.3557 73.7998C20.3226 73.8088 20.2898 73.8064 20.2574 73.7926C20.0228 73.6918 19.7982 73.7215 19.5836 73.8816C19.5525 73.9044 19.5232 73.903 19.4956 73.8774C19.3962 73.7877 19.2944 73.7391 19.1902 73.7315" stroke="#EDEDED" stroke-width="0.207006"/>
<path d="M19.1903 73.7315C18.7431 73.441 18.2687 73.1892 17.7671 72.976" stroke="#FFEC99" stroke-width="0.207006"/>
<path d="M17.7671 72.9759L15.4124 71.5114" stroke="#FAE681" stroke-width="0.207006"/>
<path d="M15.4124 71.5113C15.4449 71.0939 15.438 70.724 15.3917 70.4018" stroke="#F3D480" stroke-width="0.207006"/>
<path d="M15.3915 70.4019C15.5247 68.7327 15.5709 67.0746 15.5302 65.4275C15.5105 64.6367 15.5333 63.8315 15.5333 62.9434C15.5302 58.7815 15.5995 54.6031 15.4629 50.4444C15.4536 50.1659 15.5126 49.8451 15.4619 49.4911C15.4032 49.0902 15.4022 48.6872 15.4588 48.2822C15.4629 48.2525 15.4591 48.2239 15.4474 48.1963L15.3687 48.0182" stroke="#EDEDED" stroke-width="0.207006"/>
<path d="M15.3918 70.4019C15.3276 68.503 15.3086 66.6119 15.3348 64.7289" stroke="#E1C26E" stroke-width="0.207006"/>
<path d="M127.808 65.858C127.565 66.0491 127.317 66.2216 127.063 66.3755C124.729 67.7942 122.398 69.2242 120.071 70.6657" stroke="#F3C11A" stroke-width="0.207006"/>
<path d="M17.7671 72.976C18.1252 73.2692 18.5044 73.5328 18.9046 73.7667C19.6529 74.2056 19.9241 75.1744 20.1321 75.9568C20.1437 76.0001 20.1388 76.0461 20.1183 76.0857C20.0978 76.1254 20.0632 76.1558 20.0214 76.1711C19.9551 76.1959 19.9162 76.2418 19.9044 76.3088C19.8968 76.3522 19.9137 76.3812 19.9551 76.3957L20.1559 76.463C20.1821 76.4718 20.2102 76.4736 20.2373 76.4681C20.2644 76.4626 20.2895 76.4499 20.3102 76.4315C20.3308 76.4131 20.3462 76.3896 20.3547 76.3633C20.3632 76.337 20.3647 76.3089 20.3588 76.2818C20.2895 75.9527 20.5586 75.106 20.748 74.8266" stroke="#FAD21B" stroke-width="0.207006"/>
<path d="M20.748 74.8266C20.8302 74.8183 20.9085 74.8497 20.983 74.9207" stroke="#E8D46F" stroke-width="0.207006"/>
<path d="M67.1256 103.135C66.94 103.279 66.7916 103.381 66.6805 103.441C49.4093 112.774 32.1512 122.132 14.9062 131.513C12.2223 132.973 9.52193 134.396 6.85569 135.891C6.70457 135.977 6.54621 135.991 6.40959 136.185C6.39952 136.2 6.38463 136.21 6.36757 136.215C6.35051 136.219 6.33239 136.218 6.31644 136.21L6.08252 136.097" stroke="#EDBB02" stroke-width="0.207006"/>
<path d="M20.6153 74.7749C20.5567 74.6527 20.4608 74.5761 20.3276 74.5451C20.2966 74.5382 20.2738 74.5203 20.2593 74.4913C20.1979 74.3684 20.0764 74.286 19.895 74.2439" stroke="#E8D46F" stroke-width="0.207006"/>
<path d="M15.4122 71.5114C12.5224 69.7194 9.62812 67.9416 6.72935 66.1779C6.52337 66.0527 6.43022 65.8943 6.30084 65.7039" stroke="#EDBB02" stroke-width="0.207006"/>
<path d="M129.566 105.049C129.528 105.203 129.465 105.31 129.46 105.469C129.404 107.008 129.435 108.545 129.551 110.078" stroke="#FAD21B" stroke-width="0.207006"/>
<path d="M127.848 136.115C127.383 135.807 126.661 135.389 125.681 134.862C107.259 124.919 95.1031 118.366 89.2152 115.202C88.8985 115.032 88.7732 114.718 88.5331 114.588C81.4549 110.78 74.3777 106.971 67.3015 103.16C67.2716 103.143 67.2382 103.135 67.2042 103.135H67.1255" stroke="#F3C11A" stroke-width="0.207006"/>
<path d="M109.925 76.9328L110.317 76.6844C110.344 76.6665 110.375 76.6561 110.408 76.6534C110.588 76.6375 110.765 76.6013 110.938 76.5447C111.078 76.4992 111.157 76.3874 111.329 76.3698C111.365 76.3663 111.395 76.3501 111.417 76.3211C111.563 76.1307 111.868 75.6991 112.09 75.6184C112.121 75.6066 112.148 75.587 112.168 75.5594L112.36 75.3016" stroke="#EDDA87" stroke-width="0.207006"/>
<path d="M113.476 74.6807L113.462 74.7624C113.455 74.8004 113.47 74.8187 113.508 74.8173L113.907 74.807C113.952 74.8056 113.978 74.7825 113.982 74.7376C114.001 74.5858 113.941 74.4954 113.802 74.4664" stroke="#FAD21B" stroke-width="0.207006"/>
<path d="M19.1902 73.7315L19.5763 74.0068C19.6053 74.0275 19.6225 74.0555 19.6281 74.0907C19.646 74.2156 19.735 74.2666 19.8951 74.2438" stroke="#EDDA87" stroke-width="0.207006"/>
<path d="M19.8952 74.2439L19.7803 74.2605C19.7368 74.2667 19.7251 74.2894 19.7451 74.3288L20.1653 75.1578C20.1816 75.1897 20.1895 75.2254 20.1881 75.2613C20.1854 75.3186 20.2105 75.359 20.2637 75.3824C20.2732 75.3866 20.2834 75.3889 20.2938 75.3891C20.3042 75.3893 20.3145 75.3875 20.3241 75.3837C20.3338 75.38 20.3425 75.3744 20.3499 75.3672C20.3573 75.3601 20.3632 75.3515 20.3672 75.3421L20.6156 74.7749" stroke="#FAD21B" stroke-width="0.207006"/>
<path d="M20.6154 74.7748C20.6444 74.8204 20.6886 74.8376 20.7479 74.8266" stroke="#EDDA87" stroke-width="0.207006"/>
<path d="M91.4493 1.0069C91.4169 1.03726 91.3955 1.06934 91.3852 1.10315C91.3755 1.13559 91.3872 1.15146 91.4203 1.15077C92.2491 1.14456 93.0781 1.13697 93.9075 1.128C94.129 1.12593 94.2977 1.23771 94.4137 1.46335C94.5182 1.66518 94.3992 2.12059 94.3992 2.36279C94.3971 8.36597 94.3975 14.3688 94.4002 20.3713C94.4002 21.2821 94.4502 21.9542 94.5503 22.3876C95.1713 25.0838 97.496 26.744 100.22 26.7461C105.854 26.7509 111.487 26.7512 117.121 26.7471C117.803 26.7461 118.675 26.7378 119.438 26.7057C119.594 26.6995 119.75 26.724 119.905 26.7792C120.043 26.9075 120.108 27.0873 120.1 27.3184C120.047 28.8917 120.093 30.7765 120.093 31.9254C120.093 42.8719 120.093 53.8159 120.093 64.7576L120.07 70.6656C118.727 71.4922 117.381 72.3178 116.031 73.1424C115.426 73.5119 114.695 73.8576 114.041 74.254C114.026 74.2628 114.014 74.2745 114.004 74.2885C113.994 74.3024 113.988 74.3182 113.985 74.3348C113.964 74.4528 113.903 74.4966 113.802 74.4662C113.687 74.4704 113.579 74.5418 113.476 74.6805L113.253 74.7498C113.221 74.7595 113.205 74.7816 113.206 74.8161L113.211 74.9454C113.212 74.9841 113.194 75.0055 113.155 75.0096C112.896 75.0358 112.63 75.1331 112.359 75.3015C112.09 75.1718 112.093 74.9154 112.369 74.5325C112.379 74.5185 112.386 74.5026 112.389 74.4858C112.393 74.469 112.392 74.4517 112.388 74.4352C112.32 74.1692 113.072 73.9332 113.359 73.8483C113.387 73.8403 113.417 73.8433 113.443 73.8566C113.612 73.9463 113.791 73.9949 113.98 74.0025C114.039 74.0046 114.048 73.9853 114.006 73.9446C113.502 73.4519 112.872 73.7313 112.288 74.0118C112.257 74.0263 112.232 74.0198 112.212 73.9922L112.072 73.7997C112.062 73.7851 112.047 73.7734 112.031 73.7658C112.014 73.7582 111.996 73.7549 111.977 73.7562C111.655 73.7824 111.336 73.7734 111.022 73.7293C110.727 73.6886 110.513 73.6875 110.378 73.7262C109.919 73.8566 109.763 74.3286 109.275 74.2499C109.268 74.2487 109.261 74.249 109.255 74.2507C109.249 74.2524 109.243 74.2556 109.237 74.2599C109.232 74.2642 109.228 74.2697 109.225 74.2758C109.222 74.2819 109.221 74.2886 109.221 74.2954L109.209 75.4029C109.209 75.4444 109.222 75.4849 109.246 75.5188C109.27 75.5526 109.305 75.578 109.344 75.5913C109.525 75.6527 109.698 75.7472 109.864 75.8749C110.058 76.0239 110.279 76.0747 110.483 76.2247C110.504 76.24 110.52 76.2618 110.527 76.2869C110.535 76.3119 110.534 76.3388 110.525 76.3633C110.516 76.3879 110.499 76.4087 110.476 76.4225C110.454 76.4364 110.428 76.4426 110.402 76.44C110.244 76.4262 110.132 76.4863 110.066 76.6201C110.066 76.6214 110.065 76.6229 110.065 76.6244C110.065 76.626 110.065 76.6275 110.066 76.629C110.066 76.6305 110.067 76.6319 110.068 76.633C110.07 76.6341 110.071 76.635 110.073 76.6356C110.083 76.6391 110.094 76.6425 110.106 76.646C110.122 76.6515 110.125 76.6612 110.115 76.675L109.925 76.9327C109.71 77.039 109.554 77.1218 109.458 77.1811C95.3407 85.8229 81.2298 94.4741 67.125 103.135C66.7162 103.165 64.641 101.783 63.4621 101.057C50.903 93.3276 38.3419 85.6014 25.7786 77.8787C24.1826 76.8985 22.5276 75.9774 20.9823 74.9206C20.9726 74.7909 20.9047 74.7453 20.7784 74.784C20.7531 74.7918 20.7261 74.792 20.7007 74.7844C20.6753 74.7768 20.6528 74.7619 20.6359 74.7415C20.619 74.7211 20.6086 74.6961 20.606 74.6698C20.6033 74.6434 20.6086 74.6169 20.6211 74.5935C20.7211 74.4031 20.6804 74.2516 20.4989 74.1391C20.4866 74.1314 20.4767 74.1203 20.4705 74.1071C20.4643 74.0939 20.462 74.0792 20.464 74.0648C20.466 74.0504 20.4721 74.0368 20.4816 74.0257C20.4911 74.0147 20.5036 74.0066 20.5176 74.0025C20.8108 73.9183 21.1017 73.9332 21.3901 74.047C21.4391 74.0663 21.4546 74.0515 21.4367 74.0025C21.3259 73.693 20.5434 73.7479 20.3551 73.7997C20.3219 73.8086 20.2892 73.8062 20.2567 73.7924C20.0221 73.6917 19.7975 73.7213 19.5829 73.8814C19.5519 73.9042 19.5226 73.9028 19.495 73.8773C19.3956 73.7876 19.2938 73.7389 19.1896 73.7313C18.7425 73.4408 18.2681 73.189 17.7665 72.9758L15.4118 71.5112C15.4442 71.0937 15.4373 70.7239 15.3911 70.4016C15.5242 68.7325 15.5705 67.0744 15.5298 65.4273C15.5101 64.6365 15.5329 63.8313 15.5329 62.9432C15.5298 58.7813 15.5991 54.6029 15.4625 50.4442C15.4532 50.1657 15.5122 49.8449 15.4614 49.4909C15.4028 49.09 15.4018 48.687 15.4583 48.282C15.4625 48.2523 15.4587 48.2237 15.4469 48.1961L15.3683 48.018C15.4111 35.6391 15.4404 23.259 15.4563 10.878C15.4583 9.72187 15.4283 7.95921 15.4604 6.51327C15.4676 6.22967 15.4532 5.88604 15.5246 5.6221C16.0638 3.60276 17.5791 1.83078 19.6461 1.31327C19.9966 1.22494 20.4817 1.18182 21.1013 1.18389C22.4413 1.18803 23.7817 1.18458 25.1224 1.17354C33.077 1.10799 41.0312 1.06796 48.9851 1.05347C50.1402 1.08659 51.2956 1.09418 52.4514 1.07624C52.6967 1.07314 52.9813 1.12489 53.1842 1.12489C57.5272 1.14007 61.8702 1.13835 66.2132 1.11972C67.2337 1.11489 68.2536 1.08694 69.2727 1.03588L91.4493 1.0069Z" fill="white"/>
<path d="M6.30187 65.7034C6.43125 65.8938 6.5244 66.0522 6.73037 66.1774C9.62915 67.9411 12.5234 69.7189 15.4133 71.5109L17.768 72.9755C18.1261 73.2688 18.5052 73.5324 18.9055 73.7663C19.6538 74.2051 19.925 75.1739 20.133 75.9564C20.1446 75.9996 20.1396 76.0456 20.1191 76.0853C20.0986 76.1249 20.0641 76.1554 20.0223 76.1706C19.956 76.1955 19.917 76.2414 19.9053 76.3083C19.8977 76.3518 19.9146 76.3808 19.956 76.3952L20.1568 76.4625C20.183 76.4714 20.2111 76.4732 20.2382 76.4676C20.2653 76.4621 20.2904 76.4495 20.311 76.4311C20.3316 76.4127 20.347 76.3891 20.3556 76.3628C20.3641 76.3365 20.3655 76.3084 20.3597 76.2814C20.2903 75.9523 20.5594 75.1056 20.7488 74.8261C20.831 74.8179 20.9093 74.8493 20.9838 74.9203C22.5291 75.9771 24.1841 76.8983 25.7801 77.8784C38.3433 85.6012 50.9045 93.3273 63.4636 101.057C64.6425 101.783 66.7177 103.164 67.1265 103.134C66.9409 103.278 66.7926 103.381 66.6815 103.441C49.4103 112.774 32.1521 122.131 14.9071 131.513C12.2233 132.972 9.52289 134.395 6.85665 135.891C6.70553 135.977 6.54717 135.99 6.41055 136.185C6.40048 136.199 6.38559 136.21 6.36853 136.214C6.35147 136.219 6.33335 136.217 6.31739 136.21L6.08348 136.097C5.34757 135.285 4.62719 134.284 4.61373 133.092C4.56509 129.102 4.46158 125.108 4.4533 121.119C4.43398 111.517 4.42812 97.6131 4.43571 79.4062C4.43571 79.3537 4.44226 79.3192 4.45537 79.3027C4.46158 76.3611 4.50436 73.4199 4.58372 70.479C4.61408 69.3474 4.65168 68.6591 4.69653 68.4141C4.87974 67.4215 5.43141 66.312 6.30187 65.7034Z" fill="#F4CC03"/>
<path d="M19.8959 74.2434C20.0774 74.2855 20.1988 74.368 20.2603 74.4908C20.2748 74.5198 20.2975 74.5377 20.3286 74.5446C20.4617 74.5757 20.5577 74.6522 20.6163 74.7744L20.3679 75.3416C20.3639 75.351 20.358 75.3596 20.3506 75.3667C20.3432 75.3739 20.3345 75.3795 20.3249 75.3832C20.3152 75.387 20.3049 75.3888 20.2946 75.3886C20.2842 75.3884 20.2739 75.3861 20.2644 75.3819C20.2113 75.3585 20.1861 75.3181 20.1888 75.2608C20.1902 75.2249 20.1824 75.1892 20.1661 75.1573L19.7459 74.3283C19.7258 74.289 19.7376 74.2662 19.781 74.26L19.8959 74.2434Z" fill="#F4CC03"/>
<path d="M113.803 74.4659C113.942 74.4949 114.002 74.5853 113.984 74.7371C113.979 74.782 113.954 74.8051 113.908 74.8065L113.51 74.8168C113.472 74.8182 113.456 74.7999 113.463 74.762L113.477 74.6802C113.58 74.5415 113.689 74.4701 113.803 74.4659Z" fill="#FFD833"/>
<path d="M129.567 105.048L129.551 110.077C129.435 108.544 129.405 107.008 129.46 105.468C129.465 105.31 129.529 105.202 129.567 105.048Z" fill="#F4CC03"/>
<path d="M15.3346 64.7289C15.3084 66.612 15.3274 68.503 15.3915 70.402C15.4378 70.7242 15.4447 71.094 15.4122 71.5115C12.5224 69.7195 9.62812 67.9417 6.72935 66.178C6.52337 66.0527 6.43022 65.8944 6.30084 65.7039C6.94532 65.2106 7.67536 64.948 8.49097 64.9163C10.394 64.8425 12.6753 64.78 15.3346 64.7289Z" fill="#E6A900"/>
<path d="M127.808 65.8582C127.565 66.0493 127.317 66.2218 127.063 66.3757C124.729 67.7944 122.398 69.2244 120.071 70.6659L120.093 64.7579C121.537 64.7614 122.977 64.7621 124.415 64.76C125.679 64.7579 126.81 65.124 127.808 65.8582Z" fill="#E6A900"/>
<path d="M67.1256 103.135H67.2043C67.2382 103.135 67.2717 103.143 67.3016 103.16C74.3777 106.971 81.4549 110.78 88.5332 114.588C88.7733 114.718 88.8985 115.032 89.2152 115.202C95.1032 118.366 107.259 124.919 125.681 134.862C126.661 135.389 127.383 135.807 127.848 136.115C127.259 136.746 126.662 137.031 125.777 137.031C100.674 137.032 75.5704 137.109 50.4678 137.17C42.1599 137.19 33.8517 137.187 25.5432 137.161C21.6163 137.149 17.7018 137.131 13.7759 136.995C12.5111 136.95 10.6584 137.049 9.10378 136.896C8.28403 136.816 7.45187 136.783 6.65282 136.571C6.42926 136.512 6.23915 136.354 6.08252 136.097L6.31644 136.21C6.33239 136.218 6.35051 136.219 6.36757 136.215C6.38463 136.21 6.39952 136.2 6.40959 136.185C6.54621 135.991 6.70457 135.977 6.85569 135.891C9.52193 134.396 12.2223 132.973 14.9062 131.513C32.1512 122.132 49.4093 112.774 66.6805 103.441C66.7916 103.381 66.94 103.279 67.1256 103.135Z" fill="#E6A900"/>
<path d="M69.2714 1.0354C68.2523 1.08646 67.2324 1.11441 66.2119 1.11924C61.8689 1.13787 57.5259 1.1396 53.1829 1.12442C52.98 1.12442 52.6954 1.07266 52.4501 1.07577C51.2943 1.09371 50.1389 1.08612 48.9838 1.053C49.0797 1.0461 49.1749 1.0423 49.2694 1.04161C55.8791 1.00297 62.4889 0.991242 69.0986 1.00642C69.1607 1.00746 69.2052 1.03126 69.2714 1.0354Z" fill="#DBDBDB"/>
<path d="M91.4479 1.00642C92.2745 1.00021 93.1022 0.998825 93.9309 1.00228C94.198 1.00331 94.2476 1.13579 94.407 1.29519C102.905 9.78935 111.404 18.2839 119.904 26.7787C119.748 26.7235 119.592 26.699 119.436 26.7052C118.673 26.7373 117.802 26.7456 117.12 26.7466C111.486 26.7508 105.852 26.7504 100.219 26.7456C97.4945 26.7435 95.1698 25.0833 94.5488 22.3871C94.4488 21.9537 94.3988 21.2817 94.3988 20.3708C94.396 14.3683 94.3956 8.36549 94.3977 2.36231C94.3977 2.12011 94.5167 1.6647 94.4122 1.46286C94.2963 1.23723 94.1276 1.12544 93.9061 1.12751C93.0767 1.13648 92.2476 1.14407 91.4189 1.15029C91.3858 1.15098 91.374 1.1351 91.3837 1.10267C91.3941 1.06886 91.4154 1.03678 91.4479 1.00642Z" fill="#DBDBDB"/>
<path d="M15.3669 48.0175L15.4456 48.1955C15.4573 48.2231 15.4611 48.2518 15.457 48.2815C15.4004 48.6865 15.4014 49.0895 15.4601 49.4904C15.5108 49.8443 15.4518 50.1652 15.4611 50.4436C15.5977 54.6024 15.5284 58.7808 15.5315 62.9427C15.5315 63.8307 15.5087 64.636 15.5284 65.4268C15.5691 67.0738 15.5229 68.732 15.3897 70.4011C15.3255 68.5022 15.3065 66.6112 15.3328 64.7281L15.3669 48.0175Z" fill="white"/>
<path d="M112.358 75.3009L112.166 75.5587C112.145 75.5863 112.119 75.6059 112.087 75.6177C111.866 75.6984 111.561 76.13 111.415 76.3204C111.393 76.3494 111.363 76.3656 111.327 76.3691C111.155 76.3867 111.076 76.4985 110.935 76.544C110.763 76.6006 110.586 76.6368 110.406 76.6527C110.372 76.6555 110.342 76.6658 110.314 76.6837L109.923 76.9321L110.114 76.6744C110.123 76.6606 110.12 76.651 110.104 76.6454C110.093 76.642 110.082 76.6385 110.071 76.6351C110.07 76.6345 110.068 76.6336 110.067 76.6325C110.066 76.6313 110.065 76.6299 110.064 76.6285C110.064 76.627 110.063 76.6254 110.064 76.6239C110.064 76.6223 110.064 76.6209 110.065 76.6196C110.131 76.4857 110.242 76.4257 110.4 76.4395C110.426 76.442 110.453 76.4359 110.475 76.422C110.497 76.4081 110.514 76.3873 110.523 76.3628C110.533 76.3383 110.533 76.3114 110.526 76.2863C110.518 76.2613 110.502 76.2394 110.481 76.2242C110.277 76.0741 110.057 76.0234 109.862 75.8743C109.697 75.7467 109.523 75.6522 109.343 75.5908C109.303 75.5774 109.269 75.5521 109.245 75.5182C109.22 75.4844 109.208 75.4438 109.208 75.4024L109.219 74.2949C109.219 74.2881 109.221 74.2814 109.224 74.2753C109.227 74.2691 109.231 74.2637 109.236 74.2593C109.241 74.255 109.247 74.2519 109.254 74.2501C109.26 74.2484 109.267 74.2481 109.273 74.2493C109.762 74.328 109.918 73.856 110.377 73.7256C110.511 73.687 110.726 73.688 111.02 73.7287C111.335 73.7729 111.653 73.7819 111.976 73.7556C111.994 73.7544 112.012 73.7577 112.029 73.7653C112.046 73.7729 112.06 73.7845 112.071 73.7991L112.211 73.9916C112.231 74.0192 112.256 74.0258 112.286 74.0113C112.871 73.7308 113.5 73.4513 114.004 73.944C114.046 73.9847 114.038 74.004 113.978 74.002C113.789 73.9944 113.61 73.9457 113.441 73.856C113.415 73.8428 113.385 73.8398 113.357 73.8478C113.071 73.9326 112.318 74.1686 112.387 74.4346C112.391 74.4511 112.391 74.4684 112.388 74.4852C112.385 74.502 112.378 74.518 112.368 74.5319C112.092 74.9149 112.089 75.1712 112.358 75.3009Z" fill="white"/>
<path d="M19.1882 73.7309C19.2924 73.7385 19.3941 73.7871 19.4935 73.8768C19.5211 73.9024 19.5504 73.9037 19.5815 73.881C19.7961 73.7209 20.0207 73.6912 20.2553 73.792C20.2877 73.8058 20.3205 73.8082 20.3536 73.7992C20.542 73.7475 21.3245 73.6926 21.4352 74.0021C21.4532 74.0511 21.4376 74.0659 21.3886 74.0466C21.1002 73.9327 20.8094 73.9179 20.5161 74.0021C20.5021 74.0062 20.4896 74.0143 20.4801 74.0253C20.4706 74.0364 20.4645 74.0499 20.4626 74.0644C20.4606 74.0788 20.4628 74.0935 20.469 74.1067C20.4752 74.1199 20.4851 74.131 20.4975 74.1387C20.679 74.2512 20.7197 74.4026 20.6196 74.5931C20.6071 74.6164 20.6019 74.643 20.6045 74.6693C20.6072 74.6957 20.6176 74.7206 20.6344 74.741C20.6513 74.7615 20.6739 74.7764 20.6992 74.784C20.7246 74.7915 20.7517 74.7914 20.7769 74.7835C20.9032 74.7449 20.9712 74.7904 20.9808 74.9201C20.9063 74.8491 20.828 74.8177 20.7459 74.826C20.6866 74.837 20.6424 74.8198 20.6134 74.7742C20.5548 74.6521 20.4588 74.5755 20.3257 74.5444C20.2946 74.5375 20.2718 74.5196 20.2574 74.4906C20.1959 74.3678 20.0745 74.2853 19.893 74.2432C19.7329 74.266 19.6439 74.2149 19.626 74.0901C19.6205 74.0549 19.6032 74.0269 19.5742 74.0062L19.1882 73.7309Z" fill="white"/>
<path d="M127.808 65.8573C128.48 66.3555 128.932 66.972 129.164 67.7069C129.277 68.0623 129.339 68.7047 129.352 69.6341C129.503 81.439 129.574 93.2436 129.567 105.048C129.529 105.202 129.465 105.31 129.46 105.468C129.405 107.007 129.435 108.544 129.551 110.077C129.575 118.182 129.448 125.342 129.379 132.969C129.368 134.241 128.803 135.29 127.849 136.114C127.384 135.806 126.661 135.389 125.682 134.861C107.259 124.918 95.1041 118.365 89.2161 115.201C88.8994 115.032 88.7742 114.717 88.534 114.588C81.4558 110.779 74.3786 106.97 67.3024 103.159C67.2725 103.143 67.2391 103.134 67.2051 103.134H67.1265C81.2312 94.4735 95.3421 85.8224 109.459 77.1806C109.556 77.1212 109.711 77.0384 109.926 76.9321L110.317 76.6837C110.345 76.6658 110.375 76.6554 110.408 76.6527C110.589 76.6368 110.766 76.6006 110.938 76.544C111.079 76.4985 111.158 76.3867 111.33 76.3691C111.366 76.3656 111.395 76.3494 111.418 76.3204C111.563 76.13 111.869 75.6984 112.09 75.6177C112.122 75.6059 112.148 75.5863 112.169 75.5587L112.36 75.3009C112.632 75.1326 112.897 75.0353 113.156 75.0091C113.195 75.0049 113.214 74.9835 113.212 74.9449L113.207 74.8155C113.206 74.781 113.222 74.7589 113.255 74.7493L113.477 74.6799L113.463 74.7617C113.456 74.7996 113.471 74.8179 113.509 74.8165L113.908 74.8062C113.953 74.8048 113.979 74.7817 113.983 74.7368C114.002 74.585 113.942 74.4946 113.803 74.4657C113.904 74.496 113.965 74.4522 113.986 74.3342C113.989 74.3176 113.996 74.3018 114.006 74.2879C114.015 74.274 114.028 74.2622 114.042 74.2535C114.697 73.8571 115.427 73.5114 116.033 73.1419C117.382 72.3173 118.729 71.4917 120.071 70.665C122.399 69.2236 124.73 67.7935 127.064 66.3748C127.317 66.2209 127.565 66.0484 127.808 65.8573Z" fill="#FFD833"/>
<path d="M17.768 72.9752C18.2697 73.1884 18.744 73.4402 19.1912 73.7307L19.5772 74.0061C19.6062 74.0268 19.6235 74.0547 19.629 74.0899C19.6469 74.2148 19.7359 74.2658 19.896 74.2431L19.7811 74.2596C19.7377 74.2658 19.7259 74.2886 19.746 74.3279L20.1662 75.157C20.1825 75.1889 20.1903 75.2245 20.1889 75.2605C20.1862 75.3178 20.2114 75.3581 20.2645 75.3816C20.274 75.3858 20.2843 75.388 20.2947 75.3883C20.305 75.3885 20.3153 75.3867 20.325 75.3829C20.3346 75.3792 20.3433 75.3735 20.3507 75.3664C20.3581 75.3592 20.364 75.3507 20.368 75.3412L20.6164 74.774C20.6454 74.8196 20.6896 74.8368 20.7489 74.8258C20.5595 75.1053 20.2904 75.9519 20.3597 76.2811C20.3656 76.3081 20.3642 76.3362 20.3556 76.3625C20.3471 76.3888 20.3317 76.4123 20.3111 76.4307C20.2904 76.4491 20.2653 76.4618 20.2382 76.4673C20.2111 76.4728 20.183 76.471 20.1569 76.4622L19.9561 76.3949C19.9147 76.3804 19.8978 76.3514 19.9053 76.308C19.9171 76.241 19.9561 76.1951 20.0223 76.1703C20.0641 76.1551 20.0987 76.1246 20.1192 76.0849C20.1397 76.0453 20.1446 75.9993 20.1331 75.956C19.925 75.1736 19.6538 74.2048 18.9055 73.7659C18.5053 73.532 18.1261 73.2684 17.768 72.9752Z" fill="#F4CC03"/>
<path d="M59.0678 29.0453C59.0409 29.0557 59.0108 29.0557 58.9777 29.0453" stroke="#6ED1B2" stroke-width="0.207006"/>
<path d="M78.0328 33.2734C77.5863 32.8697 77.1206 32.66 76.6355 32.6441" stroke="#6ED1B2" stroke-width="0.207006"/>
<path d="M57.1147 33.41C56.2984 33.8289 55.4839 34.3126 54.671 34.8612" stroke="#6ED1B2" stroke-width="0.207006"/>
<path d="M91.0108 66.2516C90.888 66.3668 90.7942 66.5034 90.7293 66.6615" stroke="#6ED1B2" stroke-width="0.207006"/>
<path d="M90.7292 66.6615L90.044 67.8922" stroke="#80E3C4" stroke-width="0.207006"/>
<path d="M90.0441 67.8921C89.7868 68.0998 89.6067 68.4303 89.5038 68.8837" stroke="#6ED1B2" stroke-width="0.207006"/>
<path d="M89.5038 68.8837L89.4303 68.9644" stroke="#80E3C4" stroke-width="0.207006"/>
<path d="M89.7367 68.4603C89.4462 68.6942 89.1626 68.9244 88.8859 69.1507C88.5371 69.4353 88.1583 69.4964 88.0827 70.0791C88.0779 70.1122 88.0841 70.1429 88.1013 70.1712C88.2193 70.372 88.0392 70.4434 87.9399 70.5552C87.6742 70.8526 87.42 71.1631 87.1771 71.4868" stroke="#01C689" stroke-width="0.207006"/>
<path d="M45.0214 67.1852C44.893 66.9313 44.7457 66.667 44.5794 66.3924C44.4966 66.2558 44.4738 66.0695 44.3859 65.9142C44.3831 65.9087 44.3817 65.9094 44.3817 65.9163C44.3831 65.9287 44.3828 65.9377 44.3807 65.9432C44.371 65.9742 44.3548 65.9773 44.332 65.9525L44.2617 65.8718" stroke="#6ED1B2" stroke-width="0.207006"/>
<path d="M61.0397 28.5847C61.3136 28.5841 61.5903 28.522 61.8698 28.3984" stroke="#6ED1B2" stroke-width="0.207006"/>
<path d="M70.476 27.8706L68.9545 27.7526" stroke="#80E3C4" stroke-width="0.207006"/>
<path d="M65.782 27.8054L64.6425 27.8944" stroke="#80E3C4" stroke-width="0.207006"/>
<path d="M60.6181 28.6499C60.5367 28.81 60.3535 28.8573 60.0685 28.7917" stroke="#6ED1B2" stroke-width="0.207006"/>
<path d="M72.7944 28.1179L72.4642 28.0641" stroke="#6ED1B2" stroke-width="0.207006"/>
<path d="M71.01 27.9057L70.4759 27.8705" stroke="#6ED1B2" stroke-width="0.207006"/>
<path d="M64.6423 27.8943C64.3642 27.9709 64.1027 27.9934 63.8577 27.9616" stroke="#6ED1B2" stroke-width="0.207006"/>
<path d="M72.4642 28.0641L71.0099 27.9057" stroke="#80E3C4" stroke-width="0.207006"/>
<path d="M68.9546 27.7526C67.8602 27.8078 66.8028 27.8254 65.7822 27.8053" stroke="#6ED1B2" stroke-width="0.207006"/>
<path d="M77.2338 29.4355C77.0723 29.4162 77.0261 29.3731 77.0951 29.3062" stroke="#6ED1B2" stroke-width="0.207006"/>
<path d="M89.4315 68.9653L89.5049 68.8846L89.9645 68.2666C89.9975 68.2224 90.0441 68.1903 90.097 68.1751C90.1499 68.16 90.2063 68.1627 90.2574 68.1828C90.6456 68.337 91.2738 68.5327 91.4943 68.9042C91.751 69.3389 91.5771 69.8368 91.1165 70.0438C90.4448 70.345 89.7296 70.0862 89.1737 69.6701C89.1474 69.6505 89.129 69.6219 89.1222 69.5897C89.1153 69.5575 89.1204 69.5239 89.1365 69.4952L89.4315 68.9653Z" fill="white"/>
<path d="M110.905 75.9331C110.669 76.0615 110.052 75.7748 109.875 75.6361C109.848 75.6161 109.819 75.6022 109.787 75.5947C109.649 75.5636 109.522 75.507 109.405 75.4249C109.376 75.4042 109.36 75.3763 109.357 75.3411C109.348 75.2341 109.352 75.1279 109.367 75.0223C109.372 74.9954 109.372 74.9681 109.369 74.9405C109.364 74.8874 109.349 74.8529 109.326 74.837C109.273 74.7998 109.261 74.7525 109.292 74.6952C109.326 74.6317 109.351 74.5665 109.367 74.4996C109.395 74.3878 109.451 74.306 109.569 74.3392C109.608 74.3502 109.625 74.3754 109.62 74.4147C109.607 74.5148 109.583 74.6124 109.549 74.7076C109.534 74.747 109.531 74.787 109.538 74.8277L109.638 75.3959C109.639 75.4057 109.644 75.4147 109.65 75.4222C109.657 75.4297 109.665 75.4352 109.675 75.4384L109.702 75.4467C109.71 75.4493 109.719 75.4498 109.728 75.4484C109.736 75.4469 109.745 75.4434 109.752 75.4381C109.759 75.4329 109.764 75.4261 109.768 75.4182C109.772 75.4103 109.774 75.4016 109.774 75.3928C109.772 75.0192 109.612 74.571 109.915 74.2357C110.263 73.8517 110.983 73.9407 111.431 74.0711C111.464 74.0808 111.495 74.0787 111.525 74.0649C111.679 73.9952 111.838 73.9755 112.005 74.0059C112.022 74.0092 112.038 74.0183 112.05 74.0316C112.062 74.045 112.07 74.0619 112.071 74.0798C112.072 74.0977 112.068 74.1156 112.058 74.1306C112.048 74.1457 112.034 74.1572 112.017 74.1632L111.867 74.217C111.82 74.2343 111.798 74.2674 111.802 74.3164C111.838 74.8539 111.851 75.2051 111.84 75.3701C111.82 75.6771 111.651 75.8041 111.334 75.7509C111.301 75.7454 111.271 75.753 111.245 75.7737C111.168 75.8324 111.083 75.8703 110.99 75.8876L110.905 75.9331Z" fill="white"/>
<path d="M115.983 75.4526C116.313 74.7953 114.693 74.843 114.953 74.3192C114.962 74.3008 114.975 74.2843 114.991 74.271C115.006 74.2577 115.025 74.2477 115.044 74.2417C115.064 74.2357 115.085 74.2338 115.106 74.2361C115.126 74.2384 115.146 74.2448 115.164 74.2551C115.491 74.4434 115.961 74.637 116.139 74.933C116.632 75.7528 115.534 76.499 114.796 75.9805C114.777 75.967 114.765 75.9474 114.76 75.9252C114.755 75.903 114.758 75.8798 114.769 75.86C114.78 75.8401 114.798 75.825 114.82 75.8175C114.841 75.8099 114.865 75.8105 114.886 75.819C115.386 76.0357 115.752 75.9135 115.983 75.4526Z" fill="#FFD833"/>
<path d="M68.9548 27.7526L70.4763 27.8706L71.0103 27.9057L72.4646 28.0641L72.7947 28.1179C73.5337 28.269 74.6226 28.4781 75.402 28.8766C75.7139 29.036 76.2783 29.1792 77.0953 29.3061C77.0263 29.3731 77.0725 29.4162 77.234 29.4355L78.8693 30.1362C78.9018 30.15 78.9335 30.1487 78.9646 30.1321C79.0529 30.0838 79.1153 30.101 79.1519 30.1839C79.164 30.2115 79.1842 30.2349 79.2099 30.2511C79.2754 30.2932 79.3261 30.3453 79.362 30.4074C79.3793 30.4371 79.4034 30.4588 79.4345 30.4726C80.1165 30.7686 81.0864 31.194 81.4414 31.8109C81.6808 32.2256 81.7309 32.649 81.5915 33.0809C81.3265 33.9058 80.2076 34.4389 79.42 34.0145C78.9473 33.7606 78.485 33.5136 78.033 33.2734C77.5866 32.8698 77.1208 32.66 76.6357 32.6441C74.7948 31.883 72.8831 31.3624 70.9006 31.0823C70.3569 31.0057 69.6696 30.9594 68.8388 30.9436C67.8794 30.9249 66.8785 30.8597 65.9677 30.9332C64.0459 31.0898 62.1691 31.4735 60.3371 32.0842C60.0659 32.1742 59.7999 32.4092 59.4004 32.3885C59.3666 32.3864 59.3341 32.3923 59.3031 32.4061C59.1385 32.4827 58.9957 32.58 58.8239 32.6389C58.2194 32.8449 57.7164 33.2289 57.115 33.41C56.2987 33.8289 55.4842 34.3126 54.6713 34.8612C54.1545 35.2876 53.6349 35.7113 53.1126 36.1322C51.4041 37.5108 49.9309 39.1058 48.693 40.9171C41.7593 51.0667 43.8801 64.5686 53.5059 72.1927C63.2134 79.883 77.2433 78.3563 85.3072 69.0141C85.8713 68.361 86.6269 67.4585 87.1258 66.4762C87.3504 66.0343 87.6692 65.6358 87.8783 65.23C88.2871 64.4393 88.7756 63.6164 89.0975 62.8453C91.801 56.3743 91.3891 48.9842 88.0035 42.8444C87.764 42.411 87.6288 42.0836 87.5978 41.8621C87.4849 41.0517 88.0697 40.2216 88.8957 40.1026C89.7392 39.9815 90.3116 40.4679 90.7029 41.18C94.5004 48.0961 95.1131 56.3288 92.1467 63.694C91.9777 64.1143 91.81 64.5359 91.6437 64.9589C91.4615 65.4236 91.2452 65.8324 91.0113 66.2516C90.8885 66.3668 90.7946 66.5035 90.7298 66.6615L90.0446 67.8921C89.7872 68.0998 89.6071 68.4304 89.5043 68.8837L89.4308 68.9644C89.1403 69.1983 88.8567 69.4285 88.58 69.6548C88.2312 69.9394 87.8524 70.0005 87.7768 70.5832C87.772 70.6163 87.7782 70.647 87.7954 70.6753C87.9134 70.8761 87.7333 70.9475 87.634 71.0593C87.3683 71.3567 87.114 71.6672 86.8712 71.9909C76.7568 82.7717 59.8103 82.9901 49.3202 72.6936C48.3328 71.7259 47.4033 70.458 46.4594 69.3391C45.8808 68.6518 45.4678 67.9439 45.0217 67.1852C44.8934 66.9313 44.7461 66.667 44.5798 66.3924C44.497 66.2557 44.4742 66.0694 44.3862 65.9142C44.3834 65.9087 44.3821 65.9094 44.3821 65.9163C44.3834 65.9287 44.3831 65.9376 44.381 65.9432C44.3714 65.9742 44.3552 65.9773 44.3324 65.9525L44.262 65.8717C43.7797 64.7591 43.2508 63.5926 42.8854 62.51C39.2928 51.8709 42.6805 40.4483 51.4161 33.4256C51.8685 33.0623 52.2587 32.6503 52.7472 32.3564C53.5925 31.8478 54.4371 31.3389 55.281 30.8297C55.6401 30.6134 56.1017 30.4488 56.4557 30.1642C56.4819 30.1428 56.512 30.1293 56.5458 30.1238C56.6596 30.1062 57.144 30.0255 57.1875 29.9178C57.1992 29.8889 57.2196 29.8682 57.2486 29.8557L58.8228 29.1995C58.8594 29.1844 58.8877 29.1599 58.9077 29.126C58.9263 29.0936 58.9498 29.0667 58.9781 29.0453C59.0112 29.0557 59.0412 29.0557 59.0681 29.0453C59.3962 29.0815 59.8755 28.8352 60.069 28.7917C60.354 28.8573 60.5372 28.81 60.6186 28.6499L61.0399 28.5847C61.3138 28.584 61.5905 28.5219 61.87 28.3984C62.0611 28.4302 62.1687 28.3936 62.1929 28.2887C62.2005 28.2556 62.2208 28.2363 62.254 28.2307L63.8583 27.9616C64.1032 27.9934 64.3647 27.971 64.6428 27.8944L65.7824 27.8053C66.8029 27.8254 67.8604 27.8078 68.9548 27.7526Z" fill="#01C689"/>
<path d="M63.1668 63.1683C61.0047 61.0702 58.8725 58.9257 56.7672 56.7718C55.2985 55.2689 57.468 53.0446 58.9905 54.5485C60.8087 56.3439 62.6197 58.1435 64.4234 59.9472C64.4305 59.9545 64.4402 59.9586 64.4505 59.9586C64.4608 59.9586 64.4708 59.9545 64.4782 59.9472C68.3734 56.0362 72.2454 52.1693 76.0944 48.3466C76.7641 47.6811 77.4244 47.1677 78.3104 47.6366C79.3423 48.1831 79.4738 49.4427 78.6437 50.2738C74.351 54.5727 70.0557 58.868 65.7575 63.16C64.8933 64.0232 63.9928 63.9694 63.1668 63.1683Z" fill="#01C689"/>
<path d="M17.7606 75.8324C17.4894 75.7745 17.3145 75.7651 17.0702 75.8107C17.0603 75.8126 17.05 75.8117 17.0406 75.808C17.0311 75.8044 17.0229 75.7981 17.0169 75.79C17.0108 75.7819 17.0072 75.7723 17.0064 75.7622C17.0055 75.7521 17.0076 75.742 17.0122 75.7331C17.2751 75.2352 17.2917 73.9062 16.9656 73.4343C16.9456 73.4046 16.9515 73.3811 16.9832 73.3639C17.0723 73.3176 17.1633 73.3104 17.2565 73.3421C17.2965 73.3552 17.3162 73.3825 17.3155 73.4239C17.3141 73.5992 17.3138 73.7744 17.3145 73.9497C17.3147 73.9721 17.3204 73.9942 17.331 74.0139C17.3417 74.0337 17.3571 74.0505 17.3757 74.063C17.3944 74.0754 17.4159 74.0831 17.4382 74.0854C17.4605 74.0876 17.4831 74.0844 17.5039 74.076C18.2946 73.7524 18.8418 73.9773 19.1454 74.7508C19.1744 74.824 19.1727 74.9106 19.1402 75.0106C18.9146 75.7068 18.4547 75.9808 17.7606 75.8324Z" fill="#F4CC03"/>
<path d="M18.1723 74.1554L18.0336 74.1561C17.6781 74.158 17.3913 74.4477 17.3932 74.8033L17.3943 75.0082C17.3961 75.3637 17.6859 75.6505 18.0414 75.6486L18.1801 75.6479C18.5357 75.646 18.8224 75.3563 18.8205 75.0007L18.8195 74.7958C18.8176 74.4402 18.5279 74.1535 18.1723 74.1554Z" fill="#F4CC03"/>
</g>
<defs>
<filter id="filter0_d_4548_60442" x="0.432495" y="0.931519" width="133.234" height="144.251" filterUnits="userSpaceOnUse" color-interpolation-filters="sRGB">
<feFlood flood-opacity="0" result="BackgroundImageFix"/>
<feColorMatrix in="SourceAlpha" type="matrix" values="0 0 0 0 0 0 0 0 0 0 0 0 0 0 0 0 0 0 127 0" result="hardAlpha"/>
<feOffset dy="4"/>
<feGaussianBlur stdDeviation="2"/>
<feComposite in2="hardAlpha" operator="out"/>
<feColorMatrix type="matrix" values="0 0 0 0 0 0 0 0 0 0 0 0 0 0 0 0 0 0 0.1 0"/>
<feBlend mode="normal" in2="BackgroundImageFix" result="effect1_dropShadow_4548_60442"/>
<feBlend mode="normal" in="SourceGraphic" in2="effect1_dropShadow_4548_60442" result="shape"/>
</filter>
</defs>
</svg>
