<svg width="18" height="19" viewBox="0 0 18 19" fill="none" xmlns="http://www.w3.org/2000/svg">
<g clip-path="url(#clip0_3416_3905)">
<path d="M9 18.5C13.9706 18.5 18 14.4706 18 9.5C18 4.52944 13.9706 0.5 9 0.5C4.02944 0.5 0 4.52944 0 9.5C0 14.4706 4.02944 18.5 9 18.5Z" fill="#7986CB" style="fill:#7986CB;fill:color(display-p3 0.4745 0.5255 0.7961);fill-opacity:1;"/>
<path opacity="0.689" d="M5.27344 9.41083L8.98594 11.6043V3.25098L5.27344 9.41083Z" fill="white" style="fill:white;fill:white;fill-opacity:1;"/>
<path opacity="0.686" d="M8.98779 3.25098V11.6043L12.6997 9.41083L8.98779 3.25098Z" fill="white" style="fill:white;fill:white;fill-opacity:1;"/>
<path opacity="0.8" d="M5.27344 10.1133L8.98594 15.3442V12.3074L5.27344 10.1133Z" fill="white" style="fill:white;fill:white;fill-opacity:1;"/>
<path opacity="0.9" d="M8.98779 12.3074V15.3442L12.7022 10.1133L8.98779 12.3074Z" fill="white" style="fill:white;fill:white;fill-opacity:1;"/>
<path opacity="0.698" d="M8.98594 7.72119L5.27344 9.40933L8.98594 11.6028L12.6978 9.40933L8.98594 7.72119Z" fill="white" style="fill:white;fill:white;fill-opacity:1;"/>
</g>
<defs>
<clipPath id="clip0_3416_3905">
<rect width="18" height="18" fill="white" style="fill:white;fill:white;fill-opacity:1;" transform="translate(0 0.5)"/>
</clipPath>
</defs>
</svg>
