<svg width="14" height="15" viewBox="0 0 14 15" fill="none" xmlns="http://www.w3.org/2000/svg">
<path d="M2.47925 7.49984C2.47925 7.63389 2.50565 7.76664 2.55695 7.89049C2.60826 8.01435 2.68345 8.12688 2.77824 8.22168C2.87304 8.31647 2.98557 8.39166 3.10943 8.44296C3.23328 8.49427 3.36602 8.52067 3.50008 8.52067C3.63414 8.52067 3.76688 8.49427 3.89074 8.44296C4.01459 8.39166 4.12713 8.31647 4.22192 8.22168C4.31671 8.12688 4.39191 8.01435 4.44321 7.89049C4.49451 7.76664 4.52091 7.63389 4.52091 7.49984C4.52091 7.36578 4.49451 7.23303 4.44321 7.10918C4.39191 6.98533 4.31671 6.87279 4.22192 6.778C4.12713 6.68321 4.01459 6.60801 3.89074 6.55671C3.76688 6.50541 3.63414 6.479 3.50008 6.479C3.36602 6.479 3.23328 6.50541 3.10943 6.55671C2.98557 6.60801 2.87304 6.68321 2.77824 6.778C2.68345 6.87279 2.60826 6.98533 2.55695 7.10918C2.50565 7.23303 2.47925 7.36578 2.47925 7.49984Z" fill="#718096" style="fill:#718096;fill:color(display-p3 0.4431 0.5020 0.5882);fill-opacity:1;"/>
<path d="M5.97925 7.49984C5.97925 7.63389 6.00565 7.76664 6.05695 7.89049C6.10826 8.01435 6.18345 8.12688 6.27824 8.22168C6.37304 8.31647 6.48557 8.39166 6.60943 8.44296C6.73328 8.49427 6.86602 8.52067 7.00008 8.52067C7.13414 8.52067 7.26688 8.49427 7.39074 8.44296C7.51459 8.39166 7.62713 8.31647 7.72192 8.22168C7.81671 8.12688 7.89191 8.01435 7.94321 7.89049C7.99451 7.76664 8.02091 7.63389 8.02091 7.49984C8.02091 7.2291 7.91336 6.96944 7.72192 6.778C7.53048 6.58656 7.27082 6.479 7.00008 6.479C6.72934 6.479 6.46969 6.58656 6.27824 6.778C6.0868 6.96944 5.97925 7.2291 5.97925 7.49984Z" fill="#718096" style="fill:#718096;fill:color(display-p3 0.4431 0.5020 0.5882);fill-opacity:1;"/>
<path d="M9.47925 7.49984C9.47925 7.77058 9.5868 8.03023 9.77824 8.22168C9.96969 8.41312 10.2293 8.52067 10.5001 8.52067C10.7708 8.52067 11.0305 8.41312 11.2219 8.22168C11.4134 8.03023 11.5209 7.77058 11.5209 7.49984C11.5209 7.2291 11.4134 6.96944 11.2219 6.778C11.0305 6.58656 10.7708 6.479 10.5001 6.479C10.2293 6.479 9.96969 6.58656 9.77824 6.778C9.5868 6.96944 9.47925 7.2291 9.47925 7.49984Z" fill="#718096" style="fill:#718096;fill:color(display-p3 0.4431 0.5020 0.5882);fill-opacity:1;"/>
</svg>
