<svg width="18" height="19" viewBox="0 0 18 19" fill="none" xmlns="http://www.w3.org/2000/svg">
<circle cx="9" cy="9.5" r="9" fill="white" style="fill:white;fill:white;fill-opacity:1;"/>
<circle cx="9" cy="9.5" r="9" fill="url(#paint0_linear_3416_3898)" style=""/>
<mask id="mask0_3416_3898" style="mask-type:alpha" maskUnits="userSpaceOnUse" x="0" y="0" width="18" height="19">
<circle cx="9" cy="9.5" r="8.55" fill="#FFFCF0" stroke="#718096" style="fill:#FFFCF0;fill:color(display-p3 1.0000 0.9882 0.9412);fill-opacity:1;stroke:#718096;stroke:color(display-p3 0.4431 0.5020 0.5882);stroke-opacity:1;" stroke-width="0.9"/>
</mask>
<g mask="url(#mask0_3416_3898)">
<path d="M11.9096 11.5426L14.7558 9.99643C14.9064 9.91456 15 9.76211 15 9.59836V6.50555C15 6.34205 14.9064 6.18936 14.7558 6.10748L11.9096 4.56131C11.759 4.47944 11.5717 4.47968 11.4212 4.56131L8.57489 6.10748C8.42439 6.18936 8.33075 6.34181 8.33075 6.50555V12.0322L6.33489 13.1161L4.33906 12.0322V9.86344L6.33489 8.77944L7.65149 9.4944V8.03972L6.57908 7.45726C6.50509 7.41716 6.42062 7.39604 6.33489 7.39604C6.24916 7.39604 6.16471 7.41716 6.09071 7.45726L3.24419 9.00367C3.09364 9.08555 3 9.238 3 9.40174V12.4943C3 12.6578 3.09364 12.8105 3.24419 12.8924L6.09046 14.4388C6.241 14.5204 6.42803 14.5204 6.57882 14.4388L9.42508 12.8926C9.57563 12.8108 9.66927 12.658 9.66927 12.4946V6.96796L9.70526 6.94851L11.6651 5.88396L13.6609 6.9682V9.13666L11.6651 10.2209L10.3505 9.50688V10.9616L11.4209 11.5433C11.5715 11.625 11.7588 11.625 11.9093 11.5433L11.9096 11.5426Z" fill="url(#paint1_linear_3416_3898)" style=""/>
</g>
<defs>
<linearGradient id="paint0_linear_3416_3898" x1="6.68597" y1="18.5" x2="15.686" y2="0.5" gradientUnits="userSpaceOnUse">
<stop stop-color="#EFEFEF" style="stop-color:#EFEFEF;stop-color:color(display-p3 0.9375 0.9375 0.9375);stop-opacity:1;"/>
<stop offset="1" stop-color="white" stop-opacity="0" style="stop-color:none;stop-color:none;stop-opacity:0;"/>
</linearGradient>
<linearGradient id="paint1_linear_3416_3898" x1="4.02012" y1="12.9166" x2="13.89" y2="5.26815" gradientUnits="userSpaceOnUse">
<stop stop-color="#A726C1" style="stop-color:#A726C1;stop-color:color(display-p3 0.6549 0.1490 0.7569);stop-opacity:1;"/>
<stop offset="0.88" stop-color="#803BDF" style="stop-color:#803BDF;stop-color:color(display-p3 0.5020 0.2314 0.8745);stop-opacity:1;"/>
<stop offset="1" stop-color="#7B3FE4" style="stop-color:#7B3FE4;stop-color:color(display-p3 0.4824 0.2471 0.8941);stop-opacity:1;"/>
</linearGradient>
</defs>
</svg>
