<svg width="91" height="92" viewBox="0 0 91 92" fill="none" xmlns="http://www.w3.org/2000/svg">
<path d="M81.6941 19.7976C79.797 17.3373 77.9978 15.2838 76.2966 13.637C62.0277 -0.164194 40.6585 -2.86888 23.2845 6.5497C15.1188 10.9778 8.57165 18.1106 4.40344 26.4091" stroke="#7CC2A0" style="stroke:#7CC2A0;stroke:color(display-p3 0.4863 0.7608 0.6275);stroke-opacity:1;" stroke-width="0.818027"/>
<path d="M81.6964 19.7988C82.8043 21.5883 83.5426 22.8025 83.9114 23.4415C87.7693 30.1106 89.7801 37.3223 89.944 45.0767" stroke="#74B895" style="stroke:#74B895;stroke:color(display-p3 0.4549 0.7216 0.5843);stroke-opacity:1;" stroke-width="0.818027"/>
<path d="M89.9393 45.0743C89.399 45.1229 88.9581 44.9506 88.6167 44.5575C88.383 44.2873 88.2623 44.1485 88.2547 44.1409C84.11 40.0292 79.9896 35.8948 75.8935 31.7376C75.7918 31.6344 75.5035 31.4894 75.0284 31.3027" stroke="#5BAB56" style="stroke:#5BAB56;stroke:color(display-p3 0.3569 0.6706 0.3373);stroke-opacity:1;" stroke-width="0.818027"/>
<path d="M75.0302 31.3069C74.8504 31.0861 73.6962 29.3467 73.4777 29.6609" stroke="#539B50" style="stroke:#539B50;stroke:color(display-p3 0.3255 0.6078 0.3137);stroke-opacity:1;" stroke-width="0.818027"/>
<path d="M73.4771 29.6571C71.9245 27.7128 70.3431 26.0151 68.7329 24.5641C66.0535 22.1509 63.736 23.2095 61.5666 25.3792C53.2362 33.7057 44.9036 42.0398 36.5687 50.3816C36.5125 50.4392 36.4556 50.44 36.398 50.3838C33.4826 47.5016 30.5793 44.6079 27.6882 41.7029C25.8943 39.8998 23.199 39.7495 21.3642 41.5435C18.6666 44.1799 13.6242 47.6564 17.8061 51.8705C22.8037 56.9035 27.8187 61.9235 32.8512 66.9307C33.645 67.7214 34.4819 68.2724 35.3622 68.5835" stroke="#B0D9AB" style="stroke:#B0D9AB;stroke:color(display-p3 0.6902 0.8510 0.6706);stroke-opacity:1;" stroke-width="0.818027"/>
<path d="M35.3741 68.582L35.1191 68.9964C35.0751 69.0692 35.0827 69.136 35.1419 69.1967L55.0132 89.0857C55.0693 89.1419 55.1019 89.2086 55.111 89.286L55.1793 89.7937" stroke="#5BAB56" style="stroke:#5BAB56;stroke:color(display-p3 0.3569 0.6706 0.3373);stroke-opacity:1;" stroke-width="0.818027"/>
<path d="M55.1696 89.7969C34.5426 94.2523 14.4049 84.8861 4.755 66.1855" stroke="#A3CD9F" style="stroke:#A3CD9F;stroke:color(display-p3 0.6392 0.8039 0.6235);stroke-opacity:1;" stroke-width="0.818027"/>
<path d="M65.7355 85.9375C66.4518 85.5125 67.1696 85.0898 67.889 84.6694C81.4454 76.7375 89.652 62.2601 89.9753 46.6058C89.9859 46.0928 89.9715 45.5835 89.932 45.0781" stroke="#6FAF94" style="stroke:#6FAF94;stroke:color(display-p3 0.4353 0.6863 0.5804);stroke-opacity:1;" stroke-width="0.818027"/>
<path d="M75.0332 31.3027C75.2623 31.6488 75.5082 31.9827 75.7708 32.3045C76.9796 33.7798 77.2527 35.6056 76.3399 37.238C76.047 37.7616 75.4445 38.4014 74.5324 39.1572C63.1796 48.5599 51.6721 57.769 40.2784 67.1238C40.144 67.2331 39.987 67.2536 39.8527 67.1511" stroke="#4E934F" style="stroke:#4E934F;stroke:color(display-p3 0.3059 0.5765 0.3098);stroke-opacity:1;" stroke-width="0.818027"/>
<path d="M73.4806 29.6543C74.3047 32.252 73.3896 33.5907 71.4887 35.4894C60.935 46.0349 50.3897 56.588 39.8527 67.1487" stroke="#A2C1A4" style="stroke:#A2C1A4;stroke:color(display-p3 0.6353 0.7569 0.6431);stroke-opacity:1;" stroke-width="0.818027"/>
<path d="M39.8474 67.1543C38.6318 68.449 37.1361 68.9263 35.3605 68.5863" stroke="#ABD1AA" style="stroke:#ABD1AA;stroke:color(display-p3 0.6706 0.8196 0.6667);stroke-opacity:1;" stroke-width="0.818027"/>
<path d="M81.6918 19.7976C82.7997 21.5871 83.538 22.8013 83.9068 23.4403C87.7647 30.1094 89.7755 37.3211 89.9394 45.0755C89.3992 45.124 88.9583 44.9518 88.6168 44.5587C88.3831 44.2885 88.2624 44.1496 88.2549 44.142C84.1102 40.0304 79.9898 35.8959 75.8936 31.7387C75.792 31.6355 75.5036 31.4906 75.0286 31.3039C74.8487 31.0831 73.6946 29.3437 73.476 29.6579C71.9235 27.7136 70.3421 26.016 68.7319 24.565C66.0525 22.1517 63.735 23.2104 61.5656 25.38C53.2352 33.7065 44.9026 42.0407 36.5677 50.3824C36.5115 50.44 36.4546 50.4408 36.3969 50.3847C33.4815 47.5024 30.5783 44.6087 27.6872 41.7037C25.8933 39.9006 23.198 39.7503 21.3631 41.5444C18.6655 44.1807 13.6232 47.6572 17.805 51.8713C22.8026 56.9043 27.8177 61.9243 32.8502 66.9315C33.6439 67.7222 34.4809 68.2732 35.3611 68.5843L35.1062 68.9987C35.0622 69.0715 35.0697 69.1383 35.1289 69.199L55.0002 89.088C55.0564 89.1442 55.089 89.2109 55.0981 89.2883L55.1664 89.796C34.5393 94.2515 14.4017 84.8853 4.75176 66.1847C-1.48576 53.5173 -1.55861 39.1834 4.40118 26.4091C8.56939 18.1106 15.1165 10.9778 23.2822 6.5497C40.6562 -2.86888 62.0254 -0.164194 76.2943 13.637C77.9956 15.2838 79.7948 17.3373 81.6918 19.7976Z" fill="#60B357" style="fill:#60B357;fill:color(display-p3 0.3765 0.7020 0.3412);fill-opacity:1;"/>
<path d="M73.4771 29.6571C74.3011 32.2547 73.386 33.5934 71.4851 35.4921C60.9314 46.0377 50.3861 56.5908 39.8491 67.1515C38.6335 68.4462 37.1378 68.9235 35.3622 68.5835C34.4819 68.2724 33.645 67.7214 32.8512 66.9307C27.8187 61.9235 22.8037 56.9035 17.8061 51.8705C13.6242 47.6564 18.6666 44.1799 21.3642 41.5435C23.199 39.7495 25.8943 39.8998 27.6882 41.7029C30.5793 44.6079 33.4826 47.5016 36.398 50.3838C36.4556 50.44 36.5125 50.4392 36.5687 50.3816C44.9036 42.0398 53.2362 33.7057 61.5666 25.3792C63.736 23.2095 66.0535 22.1509 68.7329 24.5641C70.3431 26.0151 71.9245 27.7128 73.4771 29.6571Z" fill="white" style="fill:white;fill:white;fill-opacity:1;"/>
<path d="M75.0332 31.3069C75.2623 31.653 75.5082 31.9869 75.7708 32.3086C76.9796 33.7839 77.2527 35.6098 76.3399 37.2422C76.047 37.7658 75.4445 38.4056 74.5324 39.1614C63.1796 48.564 51.6721 57.7732 40.2784 67.128C40.144 67.2373 39.987 67.2578 39.8527 67.1553C50.3897 56.5946 60.935 46.0415 71.4887 35.496C73.3896 33.5972 74.3047 32.2586 73.4806 29.6609C73.6992 29.3467 74.8533 31.0861 75.0332 31.3069Z" fill="#458349" style="fill:#458349;fill:color(display-p3 0.2706 0.5137 0.2863);fill-opacity:1;"/>
<path d="M75.0415 31.3027C75.5165 31.4894 75.8049 31.6344 75.9066 31.7376C80.0027 35.8948 84.1231 40.0292 88.2678 44.1409C88.2754 44.1485 88.396 44.2873 88.6297 44.5575C88.9712 44.9506 89.4121 45.1229 89.9524 45.0743C89.9918 45.5797 90.0062 46.0889 89.9956 46.6019C89.6724 62.2563 81.4657 76.7336 67.9093 84.6655C67.19 85.086 66.4721 85.5087 65.7558 85.9337C62.3836 87.6412 58.8581 88.9282 55.1793 89.7949L55.111 89.2872C55.1019 89.2098 55.0693 89.143 55.0132 89.0868L35.1419 69.1979C35.0827 69.1372 35.0751 69.0704 35.1191 68.9975L35.3741 68.5832C37.1497 68.9231 38.6454 68.4458 39.861 67.1511C39.9953 67.2536 40.1524 67.2331 40.2867 67.1238C51.6804 57.769 63.1879 48.5599 74.5407 39.1572C75.4528 38.4014 76.0553 37.7616 76.3482 37.238C77.2611 35.6056 76.9879 33.7798 75.7791 32.3045C75.5165 31.9827 75.2707 31.6488 75.0415 31.3027Z" fill="#56A254" style="fill:#56A254;fill:color(display-p3 0.3373 0.6353 0.3294);fill-opacity:1;"/>
</svg>
