<svg width="20" height="20" viewBox="0 0 20 20" fill="none" xmlns="http://www.w3.org/2000/svg">
<path d="M11.9108 1.91098C12.067 1.75475 12.2789 1.66699 12.4999 1.66699C12.7209 1.66699 12.9328 1.75475 13.0891 1.91098L16.4224 5.24431C16.5786 5.40059 16.6664 5.61251 16.6664 5.83348C16.6664 6.05445 16.5786 6.26637 16.4224 6.42265L13.0891 9.75598C12.9319 9.90778 12.7214 9.99177 12.5029 9.98988C12.2844 9.98798 12.0754 9.90034 11.9209 9.74583C11.7664 9.59132 11.6788 9.38231 11.6769 9.16382C11.675 8.94532 11.759 8.73482 11.9108 8.57765L13.8216 6.66681H4.16659C3.94557 6.66681 3.73361 6.57902 3.57733 6.42274C3.42105 6.26646 3.33325 6.05449 3.33325 5.83348C3.33325 5.61247 3.42105 5.40051 3.57733 5.24423C3.73361 5.08795 3.94557 5.00015 4.16659 5.00015H13.8216L11.9108 3.08931C11.7545 2.93304 11.6668 2.72112 11.6668 2.50015C11.6668 2.27918 11.7545 2.06725 11.9108 1.91098ZM8.08909 10.2443C8.24531 10.4006 8.33307 10.6125 8.33307 10.8335C8.33307 11.0545 8.24531 11.2664 8.08909 11.4226L6.17825 13.3335H15.8333C16.0543 13.3335 16.2662 13.4213 16.4225 13.5776C16.5788 13.7338 16.6666 13.9458 16.6666 14.1668C16.6666 14.3878 16.5788 14.5998 16.4225 14.7561C16.2662 14.9124 16.0543 15.0001 15.8333 15.0001H6.17825L8.08909 16.911C8.24088 17.0681 8.32488 17.2787 8.32298 17.4971C8.32108 17.7156 8.23344 17.9247 8.07893 18.0792C7.92443 18.2337 7.71542 18.3213 7.49692 18.3232C7.27842 18.3251 7.06792 18.2411 6.91075 18.0893L3.57742 14.756C3.42119 14.5997 3.33343 14.3878 3.33343 14.1668C3.33343 13.9458 3.42119 13.7339 3.57742 13.5776L6.91075 10.2443C7.06703 10.0881 7.27895 10.0003 7.49992 10.0003C7.72089 10.0003 7.93281 10.0881 8.08909 10.2443Z" fill="#718096" style="fill:#718096;fill:color(display-p3 0.4431 0.5020 0.5882);fill-opacity:1;"/>
</svg>
