<svg xmlns="http://www.w3.org/2000/svg" xmlns:xlink="http://www.w3.org/1999/xlink" version="1.1" width="1000" height="1000" viewBox="0 0 1000 1000" xml:space="preserve">
<desc>Created with Fabric.js 3.5.0</desc>
<defs>
</defs>
<g transform="matrix(1.0931 0 0 1.0931 500.0074 500.0074)" id="720679">
<g style="" vector-effect="non-scaling-stroke">
		<g transform="matrix(1 0 0 1 -450 -450)">
<rect style="stroke: none; stroke-width: 1; stroke-dasharray: none; stroke-linecap: butt; stroke-dashoffset: 0; stroke-linejoin: miter; stroke-miterlimit: 4; is-custom-font: none; font-file-url: none; fill: rgb(255,255,255); fill-opacity: 0; fill-rule: nonzero; opacity: 1;" x="-50" y="-50" rx="0" ry="0" width="100" height="100"/>
</g>
		<g transform="matrix(1.7401 0 0 1.7401 -0.3566 -0.7026)" id="katman_1">
<path style="stroke: none; stroke-width: 1; stroke-dasharray: none; stroke-linecap: butt; stroke-dashoffset: 0; stroke-linejoin: miter; stroke-miterlimit: 4; is-custom-font: none; font-file-url: none; fill: rgb(255,6,10); fill-rule: nonzero; opacity: 1;" vector-effect="non-scaling-stroke" transform=" translate(-399.8, -299.6)" d="M 399.8 549.7 c 144.2 0 261 -112 261 -250.1 S 544 49.5 399.8 49.5 c -144.2 0 -261 112 -261 250.1 S 255.7 549.7 399.8 549.7 z" stroke-linecap="round"/>
</g>
		<g transform="matrix(1.7401 0 0 1.7401 7.8252 23.1336)" id="katman_1">
<path style="stroke: none; stroke-width: 1; stroke-dasharray: none; stroke-linecap: butt; stroke-dashoffset: 0; stroke-linejoin: miter; stroke-miterlimit: 4; is-custom-font: none; font-file-url: none; fill: rgb(255,255,255); fill-rule: nonzero; opacity: 1;" vector-effect="non-scaling-stroke" transform=" translate(-404.5019, -313.2982)" d="M 546.6 254.7 c -14.4 -12.8 -34.4 -32.3 -50.6 -46.1 l -1 -0.6 c -1.6 -1.2 -3.4 -2.2 -5.3 -2.9 l 0 0 c -39.2 -7 -221.6 -39.7 -225.1 -39.3 c -1 0.1 -2 0.5 -2.8 1 l -0.9 0.7 c -1.1 1.1 -2 2.4 -2.5 3.9 l -0.2 0.6 v 3.3 v 0.5 c 20.5 54.8 101.6 234.2 117.6 276.4 c 1 2.9 2.8 8.3 6.2 8.6 h 0.8 c 1.8 0 9.6 -9.9 9.6 -9.9 s 139.3 -161.8 153.4 -179 c 1.8 -2.1 3.4 -4.4 4.8 -6.8 c 0.4 -1.9 0.2 -3.8 -0.5 -5.6 S 548.1 256 546.6 254.7 L 546.6 254.7 z M 428 273.6 l 59.4 -47.2 l 34.9 30.8 L 428 273.6 z M 404.9 270.5 l -102.3 -80.4 l 165.6 29.3 L 404.9 270.5 z M 414.1 291.5 l 104.7 -16.2 L 399.1 413.6 L 414.1 291.5 z M 288.7 198.2 l 107.7 87.5 l -15.6 128 L 288.7 198.2 z" stroke-linecap="round"/>
</g>
</g>
</g>
</svg>