<?xml version="1.0" encoding="iso-8859-1"?>
<!-- Generator: Adobe Illustrator 19.0.0, SVG Export Plug-In . SVG Version: 6.00 Build 0)  -->
<svg version="1.1" id="Capa_1" xmlns="http://www.w3.org/2000/svg" xmlns:xlink="http://www.w3.org/1999/xlink" x="0px" y="0px"
	 viewBox="0 0 512 512" style="enable-background:new 0 0 512 512;" xml:space="preserve">
<path style="fill:#EE8700;" d="M92.759,387.001v76.613c0,6.5-1.783,12.649-4.867,18.117c-7.571,13.44-22.984,22.734-38.947,22.734
	h-0.541c-22.473,0-40.85-18.387-40.85-40.85v-45.016c0-16.504,12.659-30.064,28.812-31.476c0.921-0.08,1.843-0.12,2.784-0.12H92.759
	z"/>
<path style="fill:#FFA733;" d="M92.759,387.001v76.613c0,6.5-1.783,12.649-4.867,18.117c-3.856,1.102-7.862,1.703-11.908,1.703
	h-0.541c-22.473,0-40.85-18.387-40.85-40.85v-45.016c0-3.655,0.621-7.171,1.773-10.445c0.921-0.08,1.843-0.12,2.784-0.12H92.759z"/>
<path style="fill:#FFC477;" d="M406.562,26.509v431.877c0,25.448-20.62,46.078-46.068,46.078H48.874l2.554-0.08
	c21.331-1.282,38.377-19.128,38.377-40.76l-0.05-76.623V26.509c0-10.495,8.503-18.998,18.988-18.998h278.831
	C398.059,7.511,406.562,16.014,406.562,26.509z"/>
<path style="fill:#FFDAAA;" d="M406.562,26.509v431.877c0,25.448-20.62,46.078-46.068,46.078H77.416l2.554-0.08
	c21.331-1.282,38.367-19.128,38.367-40.76l-0.05-76.623V26.509c0-10.495,8.513-18.998,18.998-18.998h250.289
	C398.059,7.511,406.562,16.014,406.562,26.509z"/>
<rect x="326.316" y="215.833" transform="matrix(-0.7071 0.7071 -0.7071 -0.7071 784.5703 227.2237)" style="fill:#ACABB1;" width="37.819" height="120.537"/>
<path style="fill:#3D9AE2;" d="M352.793,283.658c-22.143,22.153-49.974,35.152-78.796,38.997
	c-40.97,5.498-83.934-7.511-115.42-38.997c-53.639-53.629-53.639-140.587,0-194.216c30.395-30.395,71.505-43.564,111.174-39.488
	c30.325,3.085,59.818,16.254,83.042,39.488C406.422,143.071,406.422,230.029,352.793,283.658z"/>
<path style="fill:#96C8EF;" d="M329.859,260.724c-16.304,16.304-36.654,26.129-57.815,29.443
	c-31.997,5.037-65.877-4.787-90.533-29.443c-40.97-40.96-40.97-107.378,0-148.349c24.656-24.656,58.536-34.481,90.533-29.443
	c21.161,3.315,41.511,13.129,57.815,29.443C370.829,153.346,370.829,219.764,329.859,260.724z"/>
<path style="fill:#D1E7F8;" d="M329.859,260.724c-16.304,16.304-36.654,26.129-57.815,29.443
	c-21.161-3.315-41.511-13.139-57.825-29.443c-40.96-40.96-40.96-107.378,0-148.349c16.314-16.314,36.664-26.129,57.825-29.443
	c21.161,3.315,41.511,13.129,57.815,29.443C370.829,153.346,370.829,219.764,329.859,260.724z"/>
<path style="fill:#2D2D30;" d="M490.576,421.111l-0.33,0.33c-2.754,2.754-5.769,5.098-8.963,7.03
	c-18.217,11.056-42.272,8.713-58.006-7.03l-53.259-53.249c-18.487-18.497-18.487-48.471,0-66.969l0.341-0.33
	c10.986-10.996,26.038-15.453,40.329-13.37c9.744,1.412,19.138,5.869,26.639,13.37l53.249,53.249
	C509.073,372.639,509.073,402.624,490.576,421.111z"/>
<path style="fill:#1D1D1F;" d="M490.576,421.111l-0.33,0.33c-2.754,2.754-5.769,5.098-8.963,7.03
	c-9.744-1.412-19.128-5.869-26.629-13.37l-53.249-53.249c-18.497-18.497-18.497-48.481,0-66.969l0.33-0.341
	c2.754-2.754,5.769-5.098,8.953-7.02c9.744,1.412,19.138,5.869,26.639,13.37l53.249,53.249
	C509.073,372.639,509.073,402.624,490.576,421.111z"/>
<path d="M176.192,107.068c-70.138,70.138-21.013,191.893,79.487,191.893c62.106,0,112.416-50.248,112.416-112.406
	C368.095,87.314,247.214,36.045,176.192,107.068z M353.073,186.555c0,86.794-105.355,129.761-166.255,68.862
	c-61.683-61.682-16.976-166.255,68.862-166.255C309.402,89.161,353.073,132.607,353.073,186.555z"/>
<path d="M495.884,348.834l-53.249-53.259c-7.912-7.902-17.806-13.099-28.562-15.112V26.509C414.073,11.888,402.185,0,387.574,0
	H108.743C94.131,0,82.244,11.888,82.244,26.509v352.98H39.15c-21.562,0-39.108,17.546-39.108,39.108v45.016
	c0,28.139,23.88,49.724,50.615,48.321c0.02,0.01,0.04,0.01,0.06,0c0.499,0.062,72.872,0.032,309.777,0.04
	c29.544,0,53.579-24.035,53.579-53.589v-35.512l3.886,3.886c34.429,34.396,93.999,9.951,93.999-39.128
	C511.957,372.97,506.249,359.19,495.884,348.834z M77.457,480.889c-0.02,0.02-0.03,0.04-0.03,0.06
	c-0.551,0.881-1.122,1.733-1.733,2.554c-0.047,0.023-3.763,5.497-10.866,9.424c-0.01,0-0.02,0.01-0.02,0.01
	c-23.023,12.009-49.743-4.266-49.743-29.323v-45.016c0-13.28,10.806-24.085,24.086-24.085h43.094l0.04,53.789
	C81.725,460.424,84.362,469.479,77.457,480.889z M399.051,458.386c0,21.261-17.296,38.567-38.557,38.567H83.956
	c17.965-18.715,12.257-40.102,13.35-48.662c-0.006-61.993-0.04-417.878-0.04-421.782c0-6.329,5.148-11.487,11.477-11.487h278.831
	c6.329,0,11.477,5.158,11.477,11.487v139.227c-5.326-37.22-24.689-69.314-51.756-91.387c-3.205-2.624-7.942-2.153-10.566,1.052
	c-2.624,3.215-2.153,7.942,1.052,10.576c29.39,24.038,47.73,60.111,47.73,100.578c0,71.527-57.876,129.821-129.831,129.821
	c-71.745,0-129.821-58.075-129.821-129.821c0-97.266,102.683-159.068,188.177-116.011c3.705,1.863,8.222,0.371,10.085-3.335
	c1.863-3.705,0.371-8.222-3.335-10.085c-95.397-48.009-209.95,20.892-209.95,129.431c0,116.154,130.943,185.667,226.885,119.406
	l13.159,13.149c-1.482,4.997-2.243,10.245-2.243,15.603c0,14.652,5.708,28.432,16.074,38.787l34.341,34.351L399.051,458.386
	L399.051,458.386z M399.051,207.28v72.442c-3.695,0.31-7.311,0.991-10.806,2.033l-13.149-13.159
	C387.737,250.281,395.899,229.386,399.051,207.28z M373.733,288.485c-6.123,4.042-11.888,9.69-16.114,16.124l-7.892-7.892
	c5.801-4.952,11.306-10.468,16.114-16.124l0,0L373.733,288.485z M428.584,416.134l-14.511-14.511L399.051,386.6l-23.715-23.715
	c-18.909-18.91-14.204-50.468,9.334-63.464c14.761-8.115,34.253-6.307,47.34,6.78l53.259,53.249
	c7.521,7.531,11.667,17.536,11.667,28.182C496.935,423.031,453.697,441.28,428.584,416.134z"/>
<path d="M313.667,205.308c-4.148,0-7.511,3.363-7.511,7.511v24.946c0,4.148,3.363,7.511,7.511,7.511
	c4.148,0,7.511-3.363,7.511-7.511v-24.946C321.178,208.671,317.815,205.308,313.667,205.308z"/>
<path d="M283.604,160.706c-4.148,0-7.511,3.363-7.511,7.511v69.547c0,4.148,3.363,7.511,7.511,7.511
	c4.148,0,7.511-3.363,7.511-7.511v-69.547C291.116,164.069,287.753,160.706,283.604,160.706z"/>
<path d="M253.542,182.488c-4.148,0-7.511,3.363-7.511,7.511v47.764c0,4.148,3.363,7.511,7.511,7.511s7.511-3.363,7.511-7.511
	v-47.764C261.053,185.851,257.69,182.488,253.542,182.488z"/>
<path d="M223.48,203.385c-4.148,0-7.511,3.363-7.511,7.511v26.869c0,4.148,3.363,7.511,7.511,7.511c4.148,0,7.511-3.363,7.511-7.511
	v-26.869C230.991,206.748,227.628,203.385,223.48,203.385z"/>
<path d="M193.417,176.516c-4.148,0-7.511,3.363-7.511,7.511v53.736c0,4.148,3.363,7.511,7.511,7.511s7.511-3.363,7.511-7.511
	v-53.736C200.929,179.879,197.566,176.516,193.417,176.516z"/>
<path d="M199.446,132.442c-2.473-3.33-7.178-4.025-10.508-1.55c-3.33,2.474-4.025,7.178-1.55,10.508l36.866,49.631
	c1.342,1.807,3.423,2.916,5.671,3.024c0.12,0.005,0.239,0.008,0.359,0.008c2.12,0,4.148-0.897,5.575-2.479l51.691-57.275
	l22.496,43.429l-4.094-2.449c-3.56-2.128-8.172-0.968-10.301,2.591c-2.129,3.56-0.969,8.172,2.591,10.301l22.94,13.719
	c1.18,0.706,2.514,1.065,3.856,1.065c0.863,0,1.73-0.148,2.561-0.45c2.122-0.77,3.786-2.454,4.53-4.585l8.554-24.494
	c1.368-3.917-0.698-8.2-4.615-9.567c-3.918-1.37-8.2,0.699-9.567,4.615l-1.743,4.99l-28.852-55.698
	c-1.133-2.187-3.267-3.679-5.709-3.995c-2.447-0.315-4.885,0.589-6.536,2.418l-52.812,58.516L199.446,132.442z"/>
<path d="M198.595,383.345c-4.146,0-7.511,3.365-7.511,7.511s3.365,7.511,7.511,7.511h164.242c4.146,0,7.511-3.365,7.511-7.511
	s-3.365-7.511-7.511-7.511H198.595z"/>
<path d="M132.287,398.367h36.263c4.146,0,7.511-3.365,7.511-7.511s-3.365-7.511-7.511-7.511h-36.263
	c-4.146,0-7.511,3.365-7.511,7.511C124.776,395.002,128.141,398.367,132.287,398.367z"/>
<path d="M132.287,432.097H296.53c4.146,0,7.511-3.365,7.511-7.511c0-4.146-3.365-7.511-7.511-7.511H132.287
	c-4.146,0-7.511,3.365-7.511,7.511C124.776,428.732,128.141,432.097,132.287,432.097z"/>
<path d="M362.837,417.075h-36.263c-4.146,0-7.511,3.365-7.511,7.511c0,4.146,3.365,7.511,7.511,7.511h36.263
	c4.146,0,7.511-3.365,7.511-7.511C370.348,420.44,366.983,417.075,362.837,417.075z"/>
<path d="M362.837,450.812h-230.55c-4.148,0-7.511,3.363-7.511,7.511c0,4.148,3.363,7.511,7.511,7.511h230.549
	c4.148,0,7.511-3.363,7.511-7.511C370.347,454.175,366.985,450.812,362.837,450.812z"/>
<g>
</g>
<g>
</g>
<g>
</g>
<g>
</g>
<g>
</g>
<g>
</g>
<g>
</g>
<g>
</g>
<g>
</g>
<g>
</g>
<g>
</g>
<g>
</g>
<g>
</g>
<g>
</g>
<g>
</g>
</svg>
