<?xml version="1.0" encoding="iso-8859-1"?>
<!-- Generator: Adobe Illustrator 19.0.0, SVG Export Plug-In . SVG Version: 6.00 Build 0)  -->
<svg version="1.1" id="Capa_1" xmlns="http://www.w3.org/2000/svg" xmlns:xlink="http://www.w3.org/1999/xlink" x="0px" y="0px"
	 viewBox="0 0 512 512" style="enable-background:new 0 0 512 512;" xml:space="preserve">
<path style="fill:#FFC477;" d="M502.232,291.631c2.965,3.93,2.965,9.368,0,13.298l-21.871,28.967
	c-2.935,3.89-2.965,9.237-0.1,13.167c0.03,0.05,0.07,0.09,0.1,0.141l13.539,17.921c5.488,7.277,0.302,17.7-8.815,17.7H26.914
	c-9.116,0-14.303-10.423-8.815-17.7l13.539-17.921c0.03-0.05,0.07-0.09,0.101-0.141c2.865-3.93,2.834-9.277-0.101-13.167
	L9.766,304.929c-2.965-3.93-2.965-9.368,0-13.298l21.871-28.977c2.965-3.93,2.965-9.368,0-13.298L9.766,220.389
	c-2.965-3.94-2.965-9.368,0-13.308l21.871-28.977c2.965-3.93,2.965-9.358,0-13.298l-13.539-17.931
	c-5.488-7.277-0.302-17.7,8.815-17.7h458.171c9.116,0,14.303,10.423,8.815,17.7l-13.539,17.931c-2.965,3.94-2.965,9.368,0,13.298
	l21.871,28.977c2.965,3.94,2.965,9.368,0,13.308l-21.871,28.967c-2.965,3.93-2.965,9.368,0,13.298L502.232,291.631z"/>
<circle style="fill:#EE8700;" cx="145.49" cy="256.002" r="82.821"/>
<path style="fill:#FFB655;" d="M485.085,382.825H26.914c-9.116,0-14.303-10.423-8.815-17.7l13.539-17.921
	c0.03-0.05,0.07-0.09,0.101-0.141H480.26c0.03,0.05,0.07,0.09,0.1,0.141l13.539,17.921
	C499.387,372.402,494.201,382.825,485.085,382.825z"/>
<path style="fill:#FFA733;" d="M502.232,291.631c2.965,3.93,2.965,9.368,0,13.298l-21.871,28.967c-2.965,3.94-2.965,9.368,0,13.308
	l13.539,17.921c5.488,7.277,0.302,17.7-8.815,17.7H248.461V129.175h236.624c9.116,0,14.303,10.423,8.815,17.7l-13.539,17.931
	c-2.965,3.94-2.965,9.368,0,13.298l21.871,28.977c2.965,3.94,2.965,9.368,0,13.308l-21.871,28.967c-2.965,3.93-2.965,9.368,0,13.298
	L502.232,291.631z"/>
<path style="fill:#FF9811;" d="M493.9,365.125l-13.539-17.921c-0.03-0.05-0.07-0.09-0.1-0.141H248.461v35.762h236.624
	C494.201,382.825,499.387,372.402,493.9,365.125z"/>
<path d="M508.247,287.086l-1.269-1.682c-2.506-3.323-7.234-3.983-10.558-1.477c-3.324,2.508-3.984,7.235-1.477,10.558
	c0.318,0.668,3.39,3.094,1.268,5.904l-21.863,28.966c-2.419,3.204-3.751,7.18-3.751,11.194c0,9.883,6.512,13.511,17.282,29.12
	c1.77,2.345,0.086,5.612-2.797,5.612H263.537V136.717h221.547c2.43,0,3.523,2.075,3.523,3.548c0,1.93-0.374,1.235-14.262,20
	c-4.953,6.561-5.051,15.691,0,22.384c21.612,29.248,24.289,29.989,21.867,33.195l-21.865,28.968
	c-4.946,6.55-5.063,15.677-0.001,22.386l2.43,3.22c2.508,3.324,7.235,3.984,10.558,1.477c3.324-2.508,3.984-7.235,1.477-10.558
	c-5.17-7.905-7.057-0.563,19.435-36.41c5.098-6.751,4.905-15.886,0.001-22.386c-21.751-29.436-22.573-28.721-22.573-31.084
	c0-2.274,1.195-2.173,14.239-20.044c9.24-12.236,0.443-29.772-14.828-29.772H211.293c-4.163,0-7.538,3.375-7.538,7.538
	c0,4.163,3.375,7.538,7.538,7.538h37.169v238.566h-89.684c-4.163,0-7.538,3.375-7.538,7.538c0,4.163,3.375,7.538,7.538,7.538
	h326.305c10.257,0,18.602-8.355,18.602-18.625c0-4.024-1.305-7.879-3.771-11.148c-13.048-17.871-14.238-17.755-14.238-20.036
	c0-2.316,0.616-1.369,22.57-31.076C513.205,302.908,513.298,293.782,508.247,287.086z"/>
<path d="M128.623,375.282H26.916c-2.89,0-4.558-3.276-2.795-5.613C34.876,354.08,41.4,350.439,41.4,340.55
	c0-4.073-1.297-7.942-3.749-11.194c-21.687-29.345-22.573-28.695-22.573-31.078c0-2.317,0.599-1.346,22.573-31.08
	c4.944-6.551,5.063-15.677,0-22.386c-21.687-29.346-22.573-28.696-22.573-31.078c0-2.318,0.639-1.4,22.573-31.085
	c5.104-6.761,4.893-15.903,0.001-22.385c-13.894-18.771-14.262-18.069-14.262-19.998c0-1.474,1.093-3.549,3.522-3.549h154.224
	c4.163,0,7.538-3.375,7.538-7.538c0-4.163-3.375-7.538-7.538-7.538H26.914c-15.27,0-24.065,17.534-14.829,29.771
	c13.03,17.849,14.24,17.758,14.24,20.044c0,2.318-0.625,1.382-22.574,31.086c-4.942,6.551-5.06,15.678,0.001,22.385
	c21.651,29.296,24.279,29.993,21.865,33.19L3.753,287.086c-4.944,6.551-5.063,15.677,0,22.386
	c21.626,29.262,24.283,29.986,21.864,33.189c-10.675,15.458-17.3,19.278-17.3,29.074c0,10.269,8.343,18.625,18.599,18.625h101.707
	c4.163,0,7.538-3.375,7.538-7.538C136.161,378.658,132.786,375.282,128.623,375.282z"/>
<path d="M235.87,256.075c0-84.281-105.577-122.391-159.489-58.284c-2.68,3.186-2.27,7.941,0.918,10.621
	c3.186,2.681,7.941,2.27,10.621-0.918c44.565-52.989,132.875-22.514,132.875,48.58c0,42.684-34.548,75.223-75.373,75.223
	c-52.534,0-87.915-51.854-71.007-100.115c1.377-3.929-0.693-8.23-4.623-9.607c-3.928-1.377-8.23,0.693-9.607,4.623
	c-12.738,36.36-0.865,76.907,29.304,100.71C148.333,373.333,235.87,331.603,235.87,256.075z"/>
<path d="M144.54,294.892c-16.648,0-16.664-11.325-23.332-11.325c-4.156,0-7.502,4.627-7.502,8.456
	c0,6.807,9.414,15.199,23.64,17.523v5.675c0,4.493,3.655,8.148,8.148,8.148c4.494,0,8.148-3.655,8.148-8.148v-5.846
	c15.054-2.948,23.639-14.043,23.639-30.724c0-21.878-13.984-28.22-26.141-32.753l0.001-0.003
	c-10.434-4.054-19.159-5.988-19.159-16.092c0-14.71,19.535-14.589,30.668-8.862c1.767,0.909,3.161,1.627,4.811,1.627
	c4.742,0,7.364-5,7.364-8.456c0-8.484-15.238-10.857-21.184-11.459v-5.876c0-4.493-3.655-8.148-8.148-8.148
	c-4.494,0-8.148,3.656-8.148,8.148v6.89c-13.68,3.339-21.184,12.849-21.184,26.955c0,35.808,45.299,22.158,45.299,48.848
	C161.463,292.216,152.26,294.892,144.54,294.892z"/>
<path d="M327.115,344.338c3.073,0,6.144-1.536,7.461-4.17l80.547-160.654c0.439-1.098,0.658-2.194,0.658-3.512
	c0-5.048-4.829-8.339-9.218-8.339c-2.634,0-5.268,1.098-6.585,3.95l-80.546,161.313c-0.658,1.098-0.877,2.195-0.877,3.293
	C318.555,340.167,322.066,344.338,327.115,344.338z"/>
<path d="M347.745,235.698v-32.481c0-19.753-12.949-26.995-29.629-26.995c-16.899,0-29.629,7.243-29.629,26.995v32.481
	c0,19.753,12.73,26.995,29.629,26.995C334.796,262.693,347.745,255.451,347.745,235.698z M331.944,235.698
	c0,8.999-5.268,12.949-13.827,12.949s-13.607-3.95-13.607-12.949v-32.481c0-8.999,5.048-12.949,13.607-12.949
	s13.827,3.95,13.827,12.949V235.698z"/>
<path d="M415.123,337.314c16.68,0,29.629-7.243,29.629-26.995v-32.482c0-19.753-12.949-26.994-29.629-26.994
	c-16.899,0-29.629,7.242-29.629,26.994v32.482C385.495,330.072,398.224,337.314,415.123,337.314z M401.517,277.837
	c0-8.998,5.048-12.949,13.607-12.949s13.827,3.95,13.827,12.949v32.482c0,8.999-5.268,12.949-13.827,12.949
	s-13.607-3.95-13.607-12.949V277.837z"/>
<g>
</g>
<g>
</g>
<g>
</g>
<g>
</g>
<g>
</g>
<g>
</g>
<g>
</g>
<g>
</g>
<g>
</g>
<g>
</g>
<g>
</g>
<g>
</g>
<g>
</g>
<g>
</g>
<g>
</g>
</svg>
