<?xml version="1.0" encoding="iso-8859-1"?>
<!-- Generator: Adobe Illustrator 19.0.0, SVG Export Plug-In . SVG Version: 6.00 Build 0)  -->
<svg version="1.1" id="Capa_1" xmlns="http://www.w3.org/2000/svg" xmlns:xlink="http://www.w3.org/1999/xlink" x="0px" y="0px"
	 viewBox="0 0 512 512" style="enable-background:new 0 0 512 512;" xml:space="preserve">
<path style="fill:#ACABB1;" d="M458.809,378.479H53.191c-11.196,0-20.273-9.077-20.273-20.273V100.219
	c0-11.196,9.077-20.273,20.273-20.273H458.81c11.196,0,20.273,9.077,20.273,20.273v257.986
	C479.082,369.403,470.006,378.479,458.809,378.479z"/>
<path style="fill:#898890;" d="M504.488,373.713v39.044c0,10.658-8.634,19.292-19.292,19.292H26.804
	c-10.657,0-19.292-8.634-19.292-19.292v-39.044c0-10.658,8.634-19.302,19.292-19.302h458.392
	C495.854,354.411,504.488,363.056,504.488,373.713z"/>
<path style="fill:#D1E7F8;" d="M454.255,121.509v232.912H57.745V121.509c0-9.666,7.843-17.499,17.509-17.499h361.493
	C446.412,104.011,454.255,111.844,454.255,121.509z"/>
<path style="fill:#96C8EF;" d="M106.658,330.552c-14.964,0-27.094-12.131-27.094-27.094V121.509c0-9.666,7.843-17.499,17.509-17.499
	H75.243c-9.664,0-17.499,7.835-17.499,17.499v232.912h24.039h7.011h365.46v-23.869H106.658z"/>
<path style="fill:#4E901E;" d="M300.654,313.013H95.693c-8.829,0-15.988-7.158-15.988-15.988v-80.117
	c0-8.829,7.158-15.988,15.988-15.988h204.962c8.829,0,15.988,7.158,15.988,15.988v80.117
	C316.642,305.855,309.484,313.013,300.654,313.013z"/>
<path style="fill:#5EAC24;" d="M300.654,286.785H95.693c-8.829,0-15.988-7.158-15.988-15.988v-80.117
	c0-8.829,7.158-15.988,15.988-15.988h204.962c8.829,0,15.988,7.158,15.988,15.988v80.117
	C316.642,279.627,309.484,286.785,300.654,286.785z"/>
<path style="fill:#7ED63E;" d="M300.654,260.556H95.693c-8.829,0-15.988-7.158-15.988-15.988v-80.117
	c0-8.829,7.158-15.988,15.988-15.988h204.962c8.829,0,15.988,7.158,15.988,15.988v80.117
	C316.642,253.398,309.484,260.556,300.654,260.556z"/>
<path style="fill:#5EAC24;" d="M267.981,165.243H128.467c-2.519,0-4.798,1.607-5.535,4.016c-2.328,7.603-8.644,13.464-16.509,15.141
	c-2.694,0.574-4.628,2.94-4.628,5.694v28.309c0,2.755,1.933,5.12,4.628,5.694c7.864,1.677,14.181,7.537,16.509,15.141
	c0.737,2.409,3.016,4.016,5.535,4.016h139.514c2.519,0,4.798-1.607,5.535-4.016c2.328-7.603,8.644-13.464,16.509-15.141
	c2.694-0.574,4.628-2.94,4.628-5.694v-28.309c0-2.755-1.933-5.12-4.628-5.694c-7.864-1.677-14.181-7.537-16.509-15.141
	C272.779,166.85,270.501,165.243,267.981,165.243z"/>
<rect x="163.428" y="148.464" style="fill:#FFC477;" width="69.504" height="112.094"/>
<rect x="163.428" y="260.557" style="fill:#FF9811;" width="69.504" height="52.456"/>
<rect x="175.308" y="148.464" style="fill:#FFDAAA;" width="57.615" height="112.094"/>
<rect x="175.308" y="260.557" style="fill:#FFA733;" width="57.615" height="52.456"/>
<path style="fill:#787680;" d="M52.626,396.49c-7.767,0-14.063-6.296-14.063-14.063v-8.714c0-10.658,8.634-19.302,19.292-19.302
	H26.804c-10.654,0-19.292,8.637-19.292,19.292v39.054c0,10.654,8.637,19.292,19.292,19.292h31.051h427.341
	c10.654,0,19.292-8.637,19.292-19.292V396.49H52.626z"/>
<path d="M336.901,232.595c-4.149,0-7.512,3.363-7.512,7.512v59.224c0,4.15,3.364,7.512,7.512,7.512s7.512-3.363,7.512-7.512v-59.224
	C344.413,235.957,341.05,232.595,336.901,232.595z"/>
<path d="M358.341,222.27c-4.149,0-7.512,3.363-7.512,7.512v69.549c0,4.15,3.364,7.512,7.512,7.512s7.512-3.363,7.512-7.512v-69.549
	C365.853,225.633,362.49,222.27,358.341,222.27z"/>
<path d="M379.782,228.039c-4.149,0-7.512,3.363-7.512,7.512v63.78c0,4.15,3.364,7.512,7.512,7.512s7.512-3.363,7.512-7.512v-63.78
	C387.294,231.403,383.931,228.039,379.782,228.039z"/>
<path d="M401.222,236.592c-4.149,0-7.512,3.363-7.512,7.512v55.227c0,4.15,3.363,7.512,7.512,7.512s7.512-3.363,7.512-7.512v-55.227
	C408.735,239.956,405.371,236.592,401.222,236.592z"/>
<path d="M422.663,210.427c-4.149,0-7.512,3.363-7.512,7.512v81.392c0,4.15,3.364,7.512,7.512,7.512s7.512-3.363,7.512-7.512V217.94
	C430.176,213.791,426.812,210.427,422.663,210.427z"/>
<path d="M329.792,214.254c2.517,3.298,7.232,3.933,10.529,1.416l17.836-13.604c40.597,18.923,38.594,18.879,41.601,18.879
	c3.012,0,5.693-1.791,6.879-4.493l18.895-43.062l1.401,4.936c0.939,3.306,3.948,5.463,7.223,5.463c0.679,0,1.369-0.093,2.054-0.287
	c3.992-1.133,6.308-5.286,5.176-9.278l-7.126-25.107c-0.62-2.185-2.195-3.972-4.285-4.862c-2.089-0.888-4.469-0.786-6.474,0.282
	l-25.812,13.752c-3.662,1.95-5.049,6.501-3.098,10.163c1.95,3.661,6.502,5.048,10.163,3.098l6.757-3.6l-15.527,35.388
	l-35.536-16.808c-2.539-1.2-5.535-0.885-7.768,0.818l-21.471,16.378C327.91,206.24,327.276,210.955,329.792,214.254z"/>
<path d="M486.598,346.929V100.224c0-15.325-12.47-27.786-27.786-27.786c-14.969,0-386.153,0-405.625,0
	c-15.315,0-27.786,12.46-27.786,27.786v246.705C11.268,347.66,0,359.4,0,373.713v39.044c0,14.774,12.02,26.804,26.804,26.804
	c11.857,0,446.59,0,458.392,0c14.784,0,26.804-12.03,26.804-26.804v-39.044C512,359.4,500.732,347.66,486.598,346.929z
	 M40.426,100.224c0-7.042,5.729-12.761,12.761-12.761c19.519,0,390.597,0,405.625,0c7.032,0,12.761,5.719,12.761,12.761v246.675
	h-9.81V121.511c0-13.794-11.222-25.016-25.016-25.016h-61.875c-4.149,0-7.512,3.364-7.512,7.512s3.364,7.512,7.512,7.512h61.875
	c5.509,0,9.991,4.482,9.991,9.991v225.388H65.261V121.511c0-5.509,4.482-9.991,9.991-9.991h269.569c4.149,0,7.512-3.364,7.512-7.512
	s-3.364-7.512-7.512-7.512H75.252c-13.794,0-25.016,11.222-25.016,25.016v225.388h-9.81V100.224z M496.975,412.757
	c0,6.491-5.279,11.779-11.779,11.779c-11.802,0-446.535,0-458.392,0c-6.501,0-11.779-5.289-11.779-11.779v-39.044
	c0-6.11,4.668-11.158,10.637-11.729c0.371-0.04,0.761-0.06,1.142-0.06c479.586,0,458.669-0.033,459.534,0.06
	c5.97,0.571,10.637,5.619,10.637,11.729L496.975,412.757L496.975,412.757z"/>
<path d="M302.887,141.061c-21.767,0-177.568,0-209.964,0c-11.519,0-20.894,9.375-20.894,20.894c0,43.426,0,94.246,0,137.646
	c0,11.519,9.375,20.894,20.894,20.894h209.964c11.529,0,20.894-9.375,20.894-20.894v-26.213c0-22.487,0-83.236,0-111.433
	C323.781,150.437,314.416,141.061,302.887,141.061z M155.675,305.471H92.922c-3.235,0-5.87-2.634-5.87-5.87v-6.16
	c5.029,1.486,2.835,0.555,68.623,0.841V305.471z M155.675,279.258H92.922c-3.235,0-5.87-2.634-5.87-5.87v-6.15
	c5.028,1.486,2.835,0.555,68.623,0.841V279.258z M155.675,158.43h-27.315c-5.659,0-10.567,3.596-12.21,8.955
	c-1.302,4.267-4.557,7.833-8.704,9.526c-3.576,1.452-5.289,5.539-3.836,9.115c1.462,3.576,5.539,5.279,9.115,3.826
	c7.813-3.185,13.773-9.506,16.497-17.439h26.453v63.795h-26.453c-3.205-9.305-10.918-16.367-20.464-18.731v-11.108
	c0-3.866-3.135-6.991-6.991-6.991c-3.866,0-6.991,3.125-6.991,6.991v12.06c0,6,4.267,11.258,10.147,12.511
	c5.329,1.142,9.636,5.088,11.228,10.307c1.643,5.349,6.541,8.945,12.21,8.945h27.315v2.865H92.922c-3.235,0-5.87-2.634-5.87-5.87
	c0-12.586,0-74.701,0-85.23c0-3.235,2.634-5.87,5.87-5.87h62.753V158.43z M225.119,305.461H170.7c0-24.198,0-19.22,0-37.381h54.419
	C225.119,287.455,225.119,279.809,225.119,305.461z M225.119,250.581H170.7c0-14.831,0-80.477,0-94.495h54.419
	C225.119,164.641,225.119,237.563,225.119,250.581z M308.757,299.602c0,3.235-2.634,5.87-5.87,5.87h-62.743v-11.188
	c65.622-0.285,63.583,0.645,68.613-0.841V299.602z M308.757,273.389c0,3.235-2.634,5.87-5.87,5.87h-62.743V268.08
	c65.62-0.285,63.583,0.646,68.613-0.841V273.389z M308.757,247.186c0,3.235-2.634,5.87-5.87,5.87h-62.743v-2.865h3.456
	c3.856,0,6.991-3.125,6.991-6.991c0-3.856-3.135-6.991-6.991-6.991h-3.456v-63.795h26.453c3.195,9.305,10.918,16.377,20.464,18.731
	v26.333c-9.736,2.414-17.569,9.706-20.644,19.292c-2.664,2.534-2.925,6.731-0.521,9.566c3.876,4.607,11.386,2.722,13.763-5.088
	c1.603-5.219,5.91-9.165,11.238-10.307c5.88-1.252,10.147-6.511,10.147-12.511v-28.226c0-6-4.267-11.268-10.147-12.521
	c-5.329-1.132-9.636-5.078-11.238-10.297c-1.633-5.359-6.541-8.955-12.2-8.955h-27.315v-2.344h62.743c3.235,0,5.87,2.634,5.87,5.87
	C308.757,188.39,308.757,217.398,308.757,247.186z"/>
<circle cx="99.123" cy="164.8" r="4.952"/>
<circle cx="296.687" cy="164.8" r="4.952"/>
<circle cx="99.123" cy="244.341" r="4.952"/>
<circle cx="296.687" cy="244.341" r="4.952"/>
<path d="M181.527,191.49h32.758c4.149,0,7.512-3.363,7.512-7.512s-3.364-7.512-7.512-7.512h-32.758
	c-4.149,0-7.512,3.363-7.512,7.512S177.378,191.49,181.527,191.49z"/>
<path d="M181.527,222.937h32.758c4.149,0,7.512-3.363,7.512-7.512s-3.364-7.512-7.512-7.512h-32.758
	c-4.149,0-7.512,3.363-7.512,7.512S177.378,222.937,181.527,222.937z"/>
<g>
</g>
<g>
</g>
<g>
</g>
<g>
</g>
<g>
</g>
<g>
</g>
<g>
</g>
<g>
</g>
<g>
</g>
<g>
</g>
<g>
</g>
<g>
</g>
<g>
</g>
<g>
</g>
<g>
</g>
</svg>
