<?xml version="1.0" encoding="iso-8859-1"?>
<!-- Generator: Adobe Illustrator 19.0.0, SVG Export Plug-In . SVG Version: 6.00 Build 0)  -->
<svg version="1.1" id="Capa_1" xmlns="http://www.w3.org/2000/svg" xmlns:xlink="http://www.w3.org/1999/xlink" x="0px" y="0px"
	 viewBox="0 0 496.485 496.485" style="enable-background:new 0 0 496.485 496.485;" xml:space="preserve">
<circle style="fill:#4FBF9F;" cx="183.079" cy="335.127" r="161.358"/>
<rect x="180.752" y="33.358" style="fill:#E1E6E9;" width="287.03" height="334.352"/>
<path style="fill:#193651;" d="M467.782,374.691h-287.03c-3.879,0-6.982-3.103-6.982-6.982V33.358c0-3.879,3.103-6.982,6.982-6.982
	h287.03c3.879,0,6.982,3.103,6.982,6.982v334.352C474.764,371.588,471.661,374.691,467.782,374.691z M187.733,360.727h273.842
	V40.339H187.733V360.727z"/>
<rect x="207.585" y="59.733" style="fill:#FFFFFF;" width="233.503" height="280.824"/>
<path style="fill:#FDBF5E;" d="M169.891,414.255c10.861,5.43,42.667,18.618,41.891-4.655c10.861,3.879,20.945-0.776,20.17-13.188
	c10.861,3.879,20.17-3.103,20.17-14.739c20.17,3.879,21.721-17.067,12.412-29.479c-6.982-8.533-15.515-15.515-24.048-22.497
	c-13.188-11.636-25.6-24.048-38.788-34.133c-9.309-6.982-18.618-6.982-30.255-9.309c-20.17-3.879-35.685-4.655-52.752-17.067
	l-41.115,61.285c5.43,5.43,12.412,11.636,18.618,17.842"/>
<path style="fill:#193651;" d="M198.594,429.77c-13.188,0-28.703-7.758-31.806-9.309s-4.655-5.43-3.103-9.309
	c1.552-3.103,5.43-4.655,9.309-3.103c10.861,5.43,25.6,10.085,30.255,6.982c1.552-0.776,1.552-2.327,1.552-5.43
	c0-2.327,0.776-4.655,2.327-5.43c1.552-1.552,3.879-1.552,6.206-0.776c6.206,2.327,11.636,0.776,11.636-6.206
	c0-2.327,0.776-4.655,2.327-5.43c1.552-1.552,3.879-1.552,6.206-0.776c6.982,2.327,10.861-1.552,11.636-8.533
	c0-2.327,0.776-3.879,2.327-4.655c1.552-1.552,3.103-1.552,5.43-1.552c4.655,0.776,7.758,0,9.309-2.327
	c2.327-3.103,1.552-10.861-3.103-16.291c-5.43-6.206-11.636-11.636-18.618-17.842l-4.655-3.879
	c-4.655-3.879-8.533-7.758-13.188-11.636c-8.533-7.758-17.067-15.515-25.6-22.497c-6.206-4.655-12.412-5.43-20.945-6.982
	c-2.327,0-4.655-0.776-6.206-0.776c-3.103-0.776-6.206-0.776-9.309-1.552c-13.964-2.327-27.152-4.655-40.339-12.412l-34.133,50.424
	c1.552,1.552,3.103,3.103,5.43,4.655c3.103,3.103,6.206,6.206,9.309,8.533c2.327,2.327,3.103,6.982,0,9.309
	c-2.327,2.327-6.982,3.103-9.309,0c-3.103-3.103-6.206-5.43-9.309-8.533s-6.206-6.206-9.309-8.533
	c-2.327-2.327-3.103-6.206-0.776-8.533l41.115-61.285c0.776-1.552,2.327-2.327,4.655-3.103c1.552,0,3.879,0,5.43,0.776
	c13.188,9.309,25.6,11.636,41.115,13.964c3.103,0.776,6.206,0.776,9.309,1.552c2.327,0.776,3.879,0.776,6.206,0.776
	c9.309,1.552,17.842,3.103,26.376,9.309c9.309,6.982,18.618,15.515,27.152,23.273c3.879,3.879,8.533,7.758,12.412,11.636
	l4.655,3.879c6.982,6.206,13.964,11.636,20.17,19.394c7.758,9.309,9.309,23.273,4.655,31.806c-3.103,5.43-9.309,8.533-16.291,9.309
	c-2.327,8.533-9.309,15.515-20.17,15.515c-2.327,8.533-10.085,13.964-20.17,13.188C214.885,425.891,207.903,429.77,198.594,429.77z"
	/>
<path style="fill:#FDBF5E;" d="M196.267,290.909l64.388,55.855l27.152-12.412v-70.594l-96.97-16.291l-41.115,36.461
	c-6.982,6.206-6.982,17.067-0.776,23.273l0,0c5.43,5.43,13.188,6.206,19.394,2.327L196.267,290.909z"/>
<path style="fill:#193651;" d="M260.655,353.745c-1.552,0-3.103-0.776-4.655-1.552l-60.509-52.752l-24.824,15.515
	c-3.879,2.327-7.758,3.103-11.636,3.103l0,0c-6.206,0-11.636-2.327-15.515-6.206c-9.309-9.309-8.533-24.048,0.776-33.358
	l41.115-36.461c1.552-1.552,3.879-1.552,5.43-1.552l96.97,16.291c3.103,0.776,5.43,3.103,5.43,6.982v70.594
	c0,2.327-1.552,4.655-3.879,6.206l-27.152,12.412C262.206,352.97,261.43,353.745,260.655,353.745z M196.267,283.927
	c1.552,0,3.103,0.776,4.655,1.552l60.509,52.752l19.394-8.533v-60.509l-88.436-14.739L153.6,288.582
	c-3.879,3.103-3.879,9.309-0.776,13.188c3.103,3.103,7.758,3.103,10.861,1.552l28.703-17.842
	C193.939,284.703,195.491,283.927,196.267,283.927z"/>
<path style="fill:#FFFFFF;" d="M96.97,252.121l-43.442,64.388c-3.879,6.206-2.327,14.739,3.879,18.618s14.739,2.327,18.618-3.879
	l43.442-64.388c3.879-6.206,2.327-14.739-3.879-18.618S101.624,245.915,96.97,252.121z"/>
<path style="fill:#193651;" d="M65.164,344.436L65.164,344.436c-3.879,0-7.758-1.552-11.636-3.103
	c-9.309-6.206-11.636-18.618-5.43-27.927l43.442-64.388c6.206-9.309,18.618-11.636,27.927-5.43s11.636,18.618,5.43,27.927
	l-43.442,64.388C78.352,341.333,72.145,344.436,65.164,344.436z M102.4,256l-43.442,64.388c-2.327,3.103-1.552,7.758,1.552,9.309
	c3.103,2.327,7.758,1.552,9.309-1.552l43.442-64.388c2.327-3.103,1.552-7.758-1.552-9.309
	C109.382,252.121,104.727,252.897,102.4,256z"/>
<path style="fill:#FFFFFF;" d="M314.958,338.23v-77.576c0-7.758-6.206-13.964-13.964-13.964c-7.758,0-13.964,6.206-13.964,13.964
	v77.576c0,7.758,6.206,13.964,13.964,13.964C308.752,351.418,314.958,345.212,314.958,338.23z"/>
<path style="fill:#193651;" d="M300.994,358.4L300.994,358.4c-10.861,0-20.17-9.309-20.17-20.17v-77.576
	c0-10.861,9.309-20.17,20.17-20.17c10.861,0,20.17,9.309,20.17,20.17v77.576C321.939,349.091,312.63,358.4,300.994,358.4z
	 M300.994,253.673c-3.879,0-6.982,3.103-6.982,6.982v77.576c0,3.879,3.103,6.982,6.982,6.982s6.982-3.103,6.982-6.982v-77.576
	C307.976,256.776,304.873,253.673,300.994,253.673z"/>
<path style="fill:#193651;" d="M252.897,388.655c-1.552,0-3.103-0.776-4.655-1.552l-33.358-30.255
	c-3.103-2.327-3.103-6.982-0.776-9.309c2.327-3.103,6.982-3.103,9.309-0.776l33.358,30.255c3.103,2.327,3.103,6.982,0.776,9.309
	C256,387.879,254.448,388.655,252.897,388.655z"/>
<path style="fill:#193651;" d="M231.952,403.394c-1.552,0-3.103-0.776-4.655-1.552l-29.479-26.376
	c-3.103-2.327-3.103-6.982-0.776-9.309c2.327-3.103,6.982-3.103,9.309-0.776l29.479,26.376c3.103,2.327,3.103,6.982,0.776,9.309
	C235.83,402.618,234.279,403.394,231.952,403.394z"/>
<path style="fill:#193651;" d="M211.782,416.582c-1.552,0-3.103-0.776-4.655-2.327l-17.842-17.842c-2.327-2.327-2.327-6.982,0-9.309
	c2.327-2.327,6.982-2.327,9.309,0l17.842,17.842c2.327,2.327,2.327,6.982,0,9.309C215.661,415.806,213.333,416.582,211.782,416.582z
	"/>
<path style="fill:#FDBF5E;" d="M173.77,393.309L173.77,393.309c-4.655-5.43-12.412-5.43-18.618-0.776l-9.309,7.758
	c-5.43,4.655-6.206,13.188-1.552,18.618c4.655,5.43,13.188,6.206,18.618,1.552l9.309-7.758
	C178.424,407.273,178.424,398.739,173.77,393.309z"/>
<path style="fill:#193651;" d="M155.152,429.77L155.152,429.77c-5.43,0-10.861-2.327-14.739-6.982
	c-6.982-8.533-6.206-20.945,2.327-27.927l9.309-7.758c7.758-6.982,20.945-6.206,27.927,2.327c6.982,8.533,6.206,20.945-2.327,27.927
	l-9.309,7.758C164.461,428.218,159.806,429.77,155.152,429.77z M164.461,395.636c-0.776,0-2.327,0-3.879,1.552l-9.309,7.758
	c-2.327,2.327-3.103,6.206-0.776,9.309c2.327,2.327,6.206,3.103,9.309,0.776l9.309-7.758c2.327-2.327,3.103-6.206,0.776-9.309
	C167.564,396.412,166.012,395.636,164.461,395.636z"/>
<path style="fill:#FDBF5E;" d="M116.364,345.212c-3.879-4.655-11.636-5.43-16.291-0.776l-7.758,6.206
	c-4.655,3.879-5.43,11.636-0.776,16.291l0,0c3.879,4.655,11.636,5.43,16.291,0.776l7.758-6.206
	C120.242,356.849,121.018,349.867,116.364,345.212z"/>
<path style="fill:#193651;" d="M100.848,377.018L100.848,377.018c-5.43,0-10.085-2.327-13.964-6.206
	c-6.206-7.758-5.43-18.618,1.552-25.6l7.758-6.206c6.982-6.206,19.394-5.43,25.6,1.552c6.206,7.758,5.43,18.618-1.552,25.6
	l-7.758,6.206C109.382,375.467,104.727,377.018,100.848,377.018z M107.83,347.539c-0.776,0-1.552,0-3.103,0.776l-7.758,6.206
	c-1.552,1.552-2.327,4.655-0.776,6.206c0.776,0.776,2.327,1.552,3.103,1.552l0,0c0.776,0,1.552,0,3.103-0.776l7.758-6.206
	c1.552-1.552,2.327-4.655,0.776-6.206C110.933,348.315,109.382,347.539,107.83,347.539z"/>
<path style="fill:#FDBF5E;" d="M160.582,370.812c-4.655-5.43-12.412-6.206-17.842-1.552l-17.067,15.515
	c-5.43,4.655-6.206,13.188-1.552,17.842l0,0c4.655,5.43,12.412,5.43,17.842,1.552l17.067-15.515
	C165.236,384,165.236,376.242,160.582,370.812z"/>
<path style="fill:#193651;" d="M133.43,413.479L133.43,413.479c-5.43,0-10.861-2.327-14.739-6.982
	c-3.103-3.879-5.43-9.309-4.655-13.964c0-5.43,3.103-10.085,6.982-13.188l17.067-15.515c7.758-6.982,20.945-6.206,27.927,1.552
	c6.982,7.758,6.206,20.17-2.327,27.927l-17.067,15.515C142.739,411.927,138.085,413.479,133.43,413.479z M151.273,373.139
	c-0.776,0-2.327,0-3.879,1.552l-17.067,15.515c-1.552,0.776-2.327,2.327-2.327,3.879c0,1.552,0.776,3.103,1.552,4.655
	c2.327,2.327,6.206,3.103,8.533,0.776L155.152,384c2.327-2.327,3.103-6.206,0.776-8.533
	C154.376,373.915,152.824,373.139,151.273,373.139z"/>
<path style="fill:#FDBF5E;" d="M148.17,348.315c-4.655-5.43-12.412-5.43-17.067-1.552l-26.376,23.273
	c-5.43,4.655-5.43,12.412-1.552,17.067c4.655,5.43,12.412,5.43,17.067,1.552l26.376-23.273
	C152.048,361.503,152.824,353.745,148.17,348.315z"/>
<path style="fill:#193651;" d="M112.485,398.739L112.485,398.739c-5.43,0-10.861-2.327-13.964-6.206
	c-3.103-3.879-4.655-8.533-4.655-13.964c0-4.655,2.327-9.309,6.206-13.188l26.376-23.273c7.758-6.206,20.17-5.43,26.376,1.552
	c3.103,3.879,4.655,8.533,4.655,13.964c0,4.655-2.327,9.309-6.206,13.188l-26.376,23.273
	C121.794,396.412,117.139,398.739,112.485,398.739z M138.861,351.418c-0.776,0-2.327,0-3.879,1.552l-26.376,23.273
	c-2.327,2.327-2.327,5.43-0.776,7.758c0.776,1.552,2.327,1.552,3.879,1.552l0,0c0.776,0,2.327,0,3.879-1.552l26.376-23.273
	c0.776-0.776,1.552-2.327,1.552-3.879c0-1.552,0-3.103-1.552-3.879C141.964,351.418,140.412,351.418,138.861,351.418z"/>
<polygon style="fill:#F16051;" points="404.945,60.509 252.121,60.509 277.721,6.982 379.345,6.982 "/>
<path style="fill:#193651;" d="M404.945,67.491L404.945,67.491H252.121c-2.327,0-4.655-1.552-5.43-3.103
	c-1.552-2.327-1.552-4.655-0.776-6.206l25.6-54.303C272.291,1.552,274.618,0,277.721,0h102.4c2.327,0,4.655,1.552,6.206,3.879
	l24.824,52.752c0.776,0.776,1.552,2.327,1.552,3.879C411.927,64.388,408.824,67.491,404.945,67.491z M262.206,53.527h131.879
	l-19.394-40.339H281.6L262.206,53.527z"/>
<rect x="234.279" y="100.073" style="fill:#FFFFFF;" width="27.927" height="27.927"/>
<path style="fill:#193651;" d="M262.206,134.206h-27.927c-3.879,0-6.982-3.103-6.982-6.982V99.297c0-3.879,3.103-6.982,6.982-6.982
	h27.927c3.879,0,6.982,3.103,6.982,6.982v27.927C269.188,131.103,266.085,134.206,262.206,134.206z M241.261,121.018H256v-14.739
	h-14.739V121.018z"/>
<rect x="234.279" y="169.891" style="fill:#FFFFFF;" width="27.927" height="27.927"/>
<g>
	<path style="fill:#193651;" d="M262.206,204.8h-27.927c-3.879,0-6.982-3.103-6.982-6.982v-27.927c0-3.879,3.103-6.982,6.982-6.982
		h27.927c3.879,0,6.982,3.103,6.982,6.982v27.927C269.188,201.697,266.085,204.8,262.206,204.8z M241.261,190.836H256v-14.739
		h-14.739V190.836z"/>
	<path style="fill:#193651;" d="M412.703,120.242h-97.745c-3.879,0-6.982-3.103-6.982-6.982c0-3.879,3.103-6.982,6.982-6.982h97.745
		c3.879,0,6.982,3.103,6.982,6.982C418.909,117.139,415.806,120.242,412.703,120.242z"/>
	<path style="fill:#193651;" d="M412.703,190.836h-97.745c-3.879,0-6.982-3.103-6.982-6.982s3.103-6.982,6.982-6.982h97.745
		c3.879,0,6.982,3.103,6.982,6.982C418.909,187.733,415.806,190.836,412.703,190.836z"/>
	<path style="fill:#193651;" d="M412.703,260.655h-63.612c-3.879,0-6.982-3.103-6.982-6.982c0-3.879,3.103-6.982,6.982-6.982h63.612
		c3.879,0,6.982,3.103,6.982,6.982C418.909,257.552,415.806,260.655,412.703,260.655z"/>
	<rect x="342.109" y="303.321" style="fill:#193651;" width="13.188" height="13.188"/>
	<rect x="373.915" y="303.321" style="fill:#193651;" width="13.188" height="13.188"/>
	<rect x="405.721" y="303.321" style="fill:#193651;" width="13.188" height="13.188"/>
</g>
<g>
</g>
<g>
</g>
<g>
</g>
<g>
</g>
<g>
</g>
<g>
</g>
<g>
</g>
<g>
</g>
<g>
</g>
<g>
</g>
<g>
</g>
<g>
</g>
<g>
</g>
<g>
</g>
<g>
</g>
</svg>
