<svg width="109" height="109" viewBox="0 0 109 109" fill="none" xmlns="http://www.w3.org/2000/svg">
<path d="M5.27419 76.256C3.33152 76.256 1.75806 74.6825 1.75806 72.7398V58.6753C1.75806 54.7918 4.90675 51.6431 8.79032 51.6431H100.21C104.093 51.6431 107.242 54.7918 107.242 58.6753V72.7398C107.242 74.6825 105.668 76.256 103.726 76.256H5.27419Z" fill="#136A26"/>
<path d="M101.968 62.1915H107.242V58.6753C107.242 54.7918 104.093 51.6431 100.21 51.6431H96.6935V56.9173C96.6935 59.8304 99.0546 62.1915 101.968 62.1915Z" fill="#9B9B9B"/>
<path d="M14.0645 69.2237C31.8069 69.2237 47.7859 62.4552 59.0165 51.6431H8.79031C4.90675 51.6431 1.75806 54.7918 1.75806 58.6753V68.1144C5.7348 68.8405 9.85043 69.2237 14.0645 69.2237V69.2237Z" fill="#35B451"/>
<path d="M1.75806 58.6753V65.7076C5.64162 65.7076 8.79031 62.5589 8.79031 58.6753V51.6431C4.90675 51.6431 1.75806 54.7918 1.75806 58.6753Z" fill="#9B9B9B"/>
<path d="M12.3065 51.6432L20.6291 39.1574C24.2156 33.7777 30.2545 30.5464 36.7207 30.5464H59.245C64.1061 30.5464 68.7895 32.3783 72.3619 35.6747L89.6613 51.6432H12.3065Z" fill="#7FCDEE"/>
<path d="M59.0165 51.6432C64.1272 46.7223 68.2481 40.9647 71.1049 34.6181C67.7242 31.9933 63.5576 30.5464 59.245 30.5464H36.7207C30.2545 30.5464 24.2173 33.7777 20.6291 39.1574L12.3065 51.6432H59.0165Z" fill="#B2E1F5"/>
<path d="M22.8548 86.8043C28.6806 86.8043 33.4032 82.0816 33.4032 76.2559C33.4032 70.4302 28.6806 65.7075 22.8548 65.7075C17.0291 65.7075 12.3065 70.4302 12.3065 76.2559C12.3065 82.0816 17.0291 86.8043 22.8548 86.8043Z" fill="#758190"/>
<path d="M22.8548 79.772C24.7967 79.772 26.371 78.1978 26.371 76.2559C26.371 74.314 24.7967 72.7397 22.8548 72.7397C20.9129 72.7397 19.3387 74.314 19.3387 76.2559C19.3387 78.1978 20.9129 79.772 22.8548 79.772Z" fill="white"/>
<path d="M82.629 86.8043C88.4548 86.8043 93.1774 82.0816 93.1774 76.2559C93.1774 70.4302 88.4548 65.7075 82.629 65.7075C76.8033 65.7075 72.0807 70.4302 72.0807 76.2559C72.0807 82.0816 76.8033 86.8043 82.629 86.8043Z" fill="#758190"/>
<path d="M82.629 79.772C84.5709 79.772 86.1452 78.1978 86.1452 76.2559C86.1452 74.314 84.5709 72.7397 82.629 72.7397C80.6871 72.7397 79.1129 74.314 79.1129 76.2559C79.1129 78.1978 80.6871 79.772 82.629 79.772Z" fill="white"/>
<path d="M42.1935 30.5464H49.2258V51.6432H42.1935V30.5464Z" fill="#758190"/>
<path d="M33.4032 23.5137H61.5323V30.5459H33.4032V23.5137Z" fill="#F9D18B"/>
<path d="M103.726 78.0138H93.1774V74.4977H103.726C104.694 74.4977 105.484 73.7101 105.484 72.7396V58.6751C105.484 55.7672 103.118 53.4009 100.21 53.4009H8.79032C5.88248 53.4009 3.51613 55.7672 3.51613 58.6751V72.7396C3.51613 73.7101 4.3055 74.4977 5.27419 74.4977H12.3065V78.0138H5.27419C2.36635 78.0138 0 75.6474 0 72.7396V58.6751C0 53.8281 3.94334 49.8848 8.79032 49.8848H100.21C105.057 49.8848 109 53.8281 109 58.6751V72.7396C109 75.6474 106.634 78.0138 103.726 78.0138Z" fill="black"/>
<path d="M88.4693 52.9333L71.17 36.9648C67.9123 33.9586 63.6771 32.3042 59.245 32.3042H36.7207C30.8277 32.3042 25.3601 35.2314 22.0918 40.1329L13.7692 52.6186L10.8438 50.669L19.1664 38.1832C23.0887 32.3007 29.6498 28.7881 36.7207 28.7881H59.245C64.5632 28.7881 69.6457 30.7747 73.5539 34.3822L90.8533 50.3525L88.4693 52.9333Z" fill="black"/>
<path d="M107.242 63.9495H101.968C98.0895 63.9495 94.9355 60.7955 94.9355 56.9173V51.6431H98.4516V56.9173C98.4516 58.8564 100.029 60.4334 101.968 60.4334H107.242V63.9495Z" fill="black"/>
<path d="M82.629 88.5626C75.8429 88.5626 70.3226 83.0405 70.3226 76.2562C70.3226 69.4718 75.8429 63.9497 82.629 63.9497C89.4151 63.9497 94.9355 69.4718 94.9355 76.2562C94.9355 83.0405 89.4151 88.5626 82.629 88.5626ZM82.629 67.4658C77.782 67.4658 73.8387 71.4092 73.8387 76.2562C73.8387 81.1031 77.782 85.0465 82.629 85.0465C87.476 85.0465 91.4193 81.1031 91.4193 76.2562C91.4193 71.4092 87.476 67.4658 82.629 67.4658Z" fill="black"/>
<path d="M22.8549 88.5626C16.0687 88.5626 10.5484 83.0405 10.5484 76.2562C10.5484 69.4718 16.0687 63.9497 22.8549 63.9497C29.641 63.9497 35.1613 69.4718 35.1613 76.2562C35.1613 83.0405 29.641 88.5626 22.8549 88.5626ZM22.8549 67.4658C18.0079 67.4658 14.0645 71.4092 14.0645 76.2562C14.0645 81.1031 18.0079 85.0465 22.8549 85.0465C27.7018 85.0465 31.6452 81.1031 31.6452 76.2562C31.6452 71.4092 27.7018 67.4658 22.8549 67.4658Z" fill="black"/>
<path d="M1.75806 67.4656V63.9495C4.6659 63.9495 7.03225 61.5832 7.03225 58.6753V51.6431H10.5484V58.6753C10.5484 63.5223 6.60504 67.4656 1.75806 67.4656Z" fill="black"/>
<path d="M63.3307 30.5462H59.8146V25.272H35.1613V30.5462H31.6451V23.5139C31.6451 22.5417 32.4328 21.7559 33.4032 21.7559H61.5727C62.5431 21.7559 63.3307 22.5417 63.3307 23.5139V30.5462Z" fill="black"/>
<path d="M82.6291 81.5303C79.7212 81.5303 77.3549 79.164 77.3549 76.2561C77.3549 73.3483 79.7212 70.9819 82.6291 70.9819C85.5369 70.9819 87.9032 73.3483 87.9032 76.2561C87.9032 79.164 85.5369 81.5303 82.6291 81.5303ZM82.6291 74.4981C81.6604 74.4981 80.871 75.2857 80.871 76.2561C80.871 77.2266 81.6604 78.0142 82.6291 78.0142C83.5977 78.0142 84.3871 77.2266 84.3871 76.2561C84.3871 75.2857 83.5977 74.4981 82.6291 74.4981Z" fill="black"/>
<path d="M22.8549 81.5303C19.947 81.5303 17.5807 79.164 17.5807 76.2561C17.5807 73.3483 19.947 70.9819 22.8549 70.9819C25.7627 70.9819 28.129 73.3483 28.129 76.2561C28.129 79.164 25.7627 81.5303 22.8549 81.5303ZM22.8549 74.4981C21.8862 74.4981 21.0968 75.2857 21.0968 76.2561C21.0968 77.2266 21.8862 78.0142 22.8549 78.0142C23.8235 78.0142 24.6129 77.2266 24.6129 76.2561C24.6129 75.2857 23.8235 74.4981 22.8549 74.4981Z" fill="black"/>
<path d="M33.4032 74.498H72.0806V78.0142H33.4032V74.498Z" fill="black"/>
<path d="M40.4759 30.5464H43.9921V51.6432H40.4759V30.5464Z" fill="black"/>
<path d="M47.5082 30.5464H51.0243V51.6432H47.5082V30.5464Z" fill="black"/>
<path d="M32.744 56.917H41.6188V59.8753H32.744V56.917Z" fill="black"/>
<path d="M35.7022 58.3965H38.6605V68.7505H35.7022V58.3965Z" fill="black"/>
<path d="M53.4519 68.7501H50.4937V61.3544C50.4937 60.5379 49.8295 59.8753 49.0145 59.8753C48.1995 59.8753 47.5354 60.5379 47.5354 61.3544V68.7501H44.5771V61.3544C44.5771 58.9079 46.568 56.917 49.0145 56.917C51.461 56.917 53.4519 58.9079 53.4519 61.3544V68.7501Z" fill="black"/>
<path d="M46.0562 62.834H51.9728V65.7923H46.0562V62.834Z" fill="black"/>
<path d="M65.2851 68.7501H62.3268C62.3268 67.2591 61.7218 65.8007 60.6687 64.7461L58.9351 63.0125C57.3302 61.4077 56.4102 59.186 56.4102 56.917H59.3685C59.3685 58.408 59.9735 59.8664 61.0266 60.921L62.7602 62.6546C64.365 64.2594 65.2851 66.4811 65.2851 68.7501V68.7501Z" fill="black"/>
<path d="M59.3685 68.7501H56.4102C56.4102 66.4811 57.3302 64.2594 58.9351 62.6546L60.6687 60.921C61.7218 59.8664 62.3268 58.408 62.3268 56.917H65.2851C65.2851 59.186 64.365 61.4077 62.7602 63.0125L61.0266 64.7461C59.9735 65.8007 59.3685 67.2591 59.3685 68.7501Z" fill="black"/>
<path d="M68.2433 56.917H71.2016V68.7501H68.2433V56.917Z" fill="black"/>
</svg>
